<?xml version="1.0" encoding="utf-8"?>
<!-- Generator: Adobe Illustrator 23.0.1, SVG Export Plug-In . SVG Version: 6.00 Build 0)  -->
<svg version="1.1" id="Layer_1" xmlns="http://www.w3.org/2000/svg" xmlns:xlink="http://www.w3.org/1999/xlink" x="0px" y="0px"
	 width="118.8px" height="4000px" viewBox="0 0 118.8 4000" style="enable-background:new 0 0 118.8 4000;" xml:space="preserve">
<style type="text/css">
	.st0{fill-rule:evenodd;clip-rule:evenodd;fill:#17667C;}
	.st1{fill-rule:evenodd;clip-rule:evenodd;fill:#FFFFFF;}
	.st2{fill:#FFFFFF;}
	.st3{fill-rule:evenodd;clip-rule:evenodd;fill:#458596;}
	.st4{fill:#458596;}
	.st5{fill:#17667C;}
	.st6{fill:#1F3F43;}
	.st7{fill:#515151;}
	.st8{fill-rule:evenodd;clip-rule:evenodd;fill:#303132;}
</style>
<g id="icon-select">
	<g id="Dropdown-Arrow_1_" transform="translate(7.985281, 5.500000) rotate(-45.000000) translate(-7.985281, -5.500000) ">
		<path class="st0" d="M71.9,75h7.8c0.3,0,0.5,0.2,0.5,0.5l0,1.7c0,0.3-0.2,0.5-0.5,0.5h-8.2h-1.7c-0.3,0-0.5-0.2-0.5-0.5v-10
			c0-0.3,0.2-0.5,0.5-0.5h1.7c0.3,0,0.5,0.2,0.5,0.5L71.9,75z"/>
	</g>
</g>
<g id="plus-white">
	<g id="Group">
		<path id="Path_2_" class="st1" d="M4.4,209c0,0.3,0.2,0.5,0.5,0.5h1.9c0.3,0,0.5,0.2,0.5,0.5v1.9c0,0.3,0.2,0.5,0.5,0.5
			s0.5-0.2,0.5-0.5V210c0-0.3,0.2-0.5,0.5-0.5H11c0.3,0,0.5-0.2,0.5-0.5s-0.2-0.5-0.5-0.5H9.1c-0.3,0-0.5-0.2-0.5-0.5v-2
			c0-0.3-0.2-0.5-0.5-0.5s-0.5,0.2-0.5,0.5v1.9c0,0.3-0.2,0.5-0.5,0.5H5C4.7,208.4,4.4,208.7,4.4,209z"/>
		<path id="Shape_1_" class="st2" d="M8,214.9c3.3,0,5.9-2.7,5.9-5.9s-2.7-5.9-5.9-5.9s-5.9,2.7-5.9,5.9S4.7,214.9,8,214.9z M8,216
			c-3.9,0-7-3.1-7-7s3.1-7,7-7s7,3.1,7,7S11.9,216,8,216z"/>
	</g>
</g>
<g id="delete-white" transform="translate(-2502.000000, -140.000000)">
	<g id="Group-12-Copy-3_1_" transform="translate(6.000000, 6.000000)">
		<g id="Line_3_">
			<path class="st2" d="M2498.8,446.2c-0.4-0.4-0.4-1,0-1.4l7.1-7.1c0.4-0.4,1-0.4,1.4,0s0.4,1,0,1.4l-7.1,7.1
				C2499.8,446.6,2499.2,446.6,2498.8,446.2z"/>
		</g>
		<g id="Line_2_">
			<path class="st2" d="M2505.8,446.2l-7.1-7.1c-0.4-0.4-0.4-1,0-1.4s1-0.4,1.4,0l7.1,7.1c0.4,0.4,0.4,1,0,1.4
				S2506.3,446.6,2505.8,446.2z"/>
		</g>
	</g>
</g>
<g id="camera-white">
	<g>
		<path id="Shape" class="st2" d="M16.1,406.6h-2.2c-0.1,0-0.2-0.1-0.2-0.1L13,405c-0.3-0.7-0.9-1-1.7-1H7.7c-0.7,0-1.4,0.4-1.7,1
			l-0.7,1.4c0,0.1-0.1,0.1-0.2,0.1H2.9c-1.6,0-2.9,1.3-2.9,2.9v8.9c0,1.6,1.3,2.9,2.9,2.9h13.3c1.6,0,2.9-1.3,2.9-2.9v-8.9
			C19,407.9,17.7,406.6,16.1,406.6z M17.9,418.3c0,1-0.8,1.7-1.7,1.7H2.9c-1,0-1.7-0.8-1.7-1.7v-8.8c0-1,0.8-1.7,1.7-1.7h2.2
			c0.5,0,1-0.3,1.2-0.8l0.7-1.4c0.1-0.2,0.4-0.4,0.6-0.4h3.7c0.3,0,0.5,0.2,0.6,0.4l0.7,1.4c0.3,0.5,0.7,0.8,1.3,0.8h2.2
			c1,0,1.7,0.8,1.7,1.7L17.9,418.3L17.9,418.3z"/>
		<path class="st2" d="M9.5,408.8c-2.6,0-4.7,2.2-4.7,4.8c0,2.6,2.1,4.8,4.7,4.8s4.8-2.2,4.8-4.8C14.3,410.9,12.1,408.8,9.5,408.8z
			 M9.5,417.3c-2,0-3.6-1.6-3.6-3.7c0-2,1.6-3.7,3.6-3.7s3.6,1.6,3.6,3.7C13.1,415.6,11.5,417.3,9.5,417.3z"/>
		<path id="Path" class="st1" d="M9.6,411.2c-0.3,0-0.6,0.3-0.6,0.6s0.3,0.6,0.6,0.6c0.6,0,1.2,0.5,1.2,1.2c0,0.3,0.3,0.6,0.6,0.6
			s0.6-0.3,0.6-0.6C11.9,412.2,10.8,411.2,9.6,411.2z"/>
	</g>
</g>
<g id="help-open">
	<g>
		<g id="Group-3">
			<g id="Clip-2">
			</g>
			<path id="Fill-1" class="st3" d="M18.3,516.7c-1.1,0.4-1.9,0.7-1.9,1.9v0.8h-2.9v-0.8c-0.1-2.3,0.7-3.6,2.8-4.4l1-0.4
				c1.1-0.4,1.8-1.3,1.8-2.4c0-1.6-1.1-2.5-2.6-2.5c-1.4,0-2.8,1.1-2.8,2.9h-3.1c0-3.8,2.7-6,6-6s5.7,2.1,5.7,5.5
				C22.2,514.1,20.5,516,18.3,516.7 M14.9,526c-1.2,0-2.2-0.9-2.2-2.1c0-1.2,1-2.1,2.2-2.1s2.2,0.9,2.2,2.1S16.1,526,14.9,526
				 M16,500.9c-8,0-14.5,6.5-14.5,14.5c0,8,6.5,14.5,14.5,14.5s14.5-6.5,14.5-14.5C30.5,507.4,24,500.9,16,500.9"/>
		</g>
	</g>
</g>
<g id="help-close" transform="translate(-2502.000000, -140.000000)">
	<g transform="translate(922.000000, 11.000000)">
		<g id="Path-2">
			<path class="st4" d="M1583.5,754.9c-0.4,0-0.7-0.1-1-0.4c-0.3-0.3-0.4-0.7-0.4-1c0-0.4,0.1-0.7,0.4-1l22-22
				c0.6-0.6,1.5-0.6,2.1,0c0.3,0.3,0.4,0.7,0.4,1c0,0.4-0.1,0.7-0.4,1l-22,22C1584.2,754.8,1583.9,754.9,1583.5,754.9z"/>
		</g>
		<g>
			<path class="st4" d="M1605.5,754.9c-0.4,0-0.7-0.1-1-0.4l-22-22c-0.6-0.6-0.6-1.5,0-2.1s1.5-0.6,2.1,0l22,22
				c0.6,0.6,0.6,1.5,0,2.1C1606.2,754.7,1605.8,754.9,1605.5,754.9z"/>
		</g>
	</g>
</g>
<g id="Download">
	<g id="Path_1_">
		<path class="st0" d="M107.3,713.3c0.4,0.4,1,0.4,1.4,0l4.7-4.7c0.8-0.8-0.4-1.9-1.2-1.1l-3.2,3.2c-0.2,0.2-0.3,0.1-0.3-0.1v-8.7
			c0-0.4-0.4-0.8-0.8-0.8c-0.5,0-0.8,0.4-0.8,0.8v8.7c0,0.2-0.1,0.3-0.3,0.1l-3.2-3.2c-0.8-0.8-1.9,0.4-1.2,1.1L107.3,713.3z"/>
		<path class="st0" d="M115.4,717c0,0.2-0.2,0.4-0.4,0.4h-13.9c-0.2,0-0.4-0.2-0.4-0.4v-2.8c0-0.4-0.4-0.8-0.8-0.8
			c-0.5,0-0.8,0.4-0.8,0.8v3.6c0,0.7,0.6,1.2,1.2,1.2h15.5c0.7,0,1.2-0.5,1.2-1.2v-3.6c0-0.4-0.4-0.8-0.8-0.8
			c-0.5,0-0.8,0.4-0.8,0.8L115.4,717L115.4,717z"/>
	</g>
</g>
<g id="Sorter">
	<g transform="translate(-2.000000, 0.000000)">
		<g id="Combined-Shape_1_">
			<path class="st5" d="M108,810h7l-3.2,6L108,810z M115,807h-7l3.2-6L115,807z"/>
		</g>
	</g>
</g>
<g id="active-up">
	<g transform="translate(267.000000, 10.000000)">
		<path class="st6" d="M-161.5,898.1c-0.1,0-0.2,0-0.2-0.1c-0.2-0.1-0.3-0.4-0.2-0.7l3.6-6.6c0.1-0.2,0.2-0.3,0.4-0.3
			s0.3,0.1,0.4,0.2l4.3,6.6c0.2,0.2,0.1,0.5-0.1,0.7c-0.2,0.2-0.5,0.1-0.7-0.1l-3.8-5.9l-3.2,5.9
			C-161.1,898-161.3,898.1-161.5,898.1z"/>
		<path class="st6" d="M-157.6,903.5c-0.3,0-0.5-0.2-0.5-0.5v-11.3c0-0.3,0.2-0.5,0.5-0.5s0.5,0.2,0.5,0.5V903
			C-157.1,903.3-157.3,903.5-157.6,903.5z"/>
	</g>
</g>
<g id="sorter-down">
	<g transform="translate(267.000000, 10.000000)">
		<path class="st6" d="M-153.5,995.9c0.1,0,0.2,0,0.2,0.1c0.2,0.1,0.3,0.4,0.2,0.7l-3.6,6.6c-0.1,0.2-0.2,0.3-0.4,0.3
			s-0.3-0.1-0.4-0.2l-4.3-6.6c-0.2-0.2-0.1-0.5,0.1-0.7c0.2-0.2,0.5-0.1,0.7,0.1l3.8,5.9l3.2-5.9
			C-153.9,996-153.7,995.9-153.5,995.9z"/>
		<path class="st6" d="M-157.4,990.5c0.3,0,0.5,0.2,0.5,0.5v11.3c0,0.3-0.2,0.5-0.5,0.5s-0.5-0.2-0.5-0.5V991
			C-157.9,990.7-157.7,990.5-157.4,990.5z"/>
	</g>
</g>
<g id="back-arrow">
	<g transform="translate(267.000000, 10.000000)">
		<path class="st5" d="M-259.8,1100.8c0,0.1,0,0.3-0.1,0.3c-0.1,0.3-0.3,0.4-0.5,0.3l-5.1-5.1c-0.2-0.1-0.2-0.3-0.2-0.6
			c0-0.3,0.1-0.4,0.2-0.6l5.1-6.5c0.2-0.3,0.4-0.1,0.5,0.1s0.1,0.7-0.1,1l-4.5,5.7l4.6,4.6C-259.8,1100.2-259.8,1100.5-259.8,1100.8
			z"/>
		<path class="st5" d="M-242.7,1094.9c0,0.4-0.3,0.6-0.9,0.6l-20.2,0.2c-0.6,0-0.9-0.2-0.9-0.6s0.3-0.6,0.9-0.6l20.2-0.2
			C-243.1,1094.3-242.7,1094.5-242.7,1094.9z"/>
	</g>
</g>
<g id="UI">
	<g id="Group-Copy-3">
		<path id="Shape_2_" class="st7" d="M11,1219c-5.5,0-10-4.5-10-10c0-0.3,0.3-0.6,0.6-0.6s0.6,0.3,0.6,0.6c0,4.8,3.9,8.7,8.7,8.7
			s8.7-3.9,8.7-8.7c0-4.6-3.6-8.4-8.1-8.7v2.3c0,0.3-0.3,0.6-0.6,0.6s-0.6-0.3-0.6-0.6v-2.9c0-0.3,0.3-0.6,0.6-0.6
			c5.5,0,10,4.5,10,10C21,1214.5,16.5,1219,11,1219z"/>
		<path class="st7" d="M12.5,1209.6L12.5,1209.6l3.5-4.7c0.1-0.1,0-0.2,0-0.3s-0.2-0.1-0.3,0l-4.6,3.6H11c-0.5,0-1,0.2-1.3,0.7
			s-0.3,1.1,0,1.5c0.6,0.8,1.7,0.9,2.4,0.2C12.5,1210.3,12.6,1209.9,12.5,1209.6z"/>
	</g>
</g>
<g id="icon-delete">
	<g id="Group-10" transform="translate(0.000000, -1.000000)">
		<path id="Fill-1_1_" class="st8" d="M11.5,1306.7l-0.3,6.2c0,0.3,0.2,0.6,0.6,0.6c0.3,0,0.6-0.2,0.6-0.6l0.3-6.2
			c0-0.3-0.2-0.6-0.6-0.6C11.8,1306.1,11.5,1306.4,11.5,1306.7"/>
		<g id="Group-5" transform="translate(0.000000, 0.615400)">
			<g id="Clip-4">
			</g>
			<path id="Fill-3" class="st8" d="M14,1314.8H4l-0.6-11.7h2.5h6.2h2.5L14,1314.8z M7.6,1300.6h2.8l0.2,1.2H7.4L7.6,1300.6z
				 M16.4,1301.8h-1.8h-2.7l-0.2-1.4c-0.1-0.6-0.6-1-1.2-1H7.6c-0.6,0-1.1,0.4-1.2,1l-0.2,1.4H3.5H1.6c-0.3,0-0.6,0.3-0.6,0.6
				c0,0.3,0.3,0.6,0.6,0.6h0.6c0,0,0,0,0,0.1l0.6,11.7c0,0.7,0.6,1.2,1.2,1.2h10c0.7,0,1.2-0.5,1.2-1.2l0.6-11.7c0,0,0,0,0-0.1h0.6
				c0.3,0,0.6-0.3,0.6-0.6C17,1302.1,16.7,1301.8,16.4,1301.8z"/>
		</g>
		<path id="Fill-6" class="st8" d="M5.9,1306.2c-0.3,0-0.6,0.3-0.6,0.6l0.3,6.2c0,0.3,0.3,0.6,0.6,0.6c0.3,0,0.6-0.3,0.6-0.6
			l-0.3-6.2C6.5,1306.4,6.2,1306.1,5.9,1306.2"/>
		<path id="Fill-8" class="st8" d="M9,1306.2c-0.3,0-0.6,0.3-0.6,0.6v6.2c0,0.3,0.3,0.6,0.6,0.6s0.6-0.3,0.6-0.6v-6.2
			C9.6,1306.4,9.3,1306.2,9,1306.2"/>
	</g>
</g>
</svg>
