<?xml version="1.0" encoding="utf-8"?>
<!-- Generator: Adobe Illustrator 23.0.1, SVG Export Plug-In . SVG Version: 6.00 Build 0)  -->
<svg version="1.1" id="Layer_1" xmlns="http://www.w3.org/2000/svg" xmlns:xlink="http://www.w3.org/1999/xlink" x="0px" y="0px"
	 width="118.8px" height="4000px" viewBox="0 0 118.8 4000" style="enable-background:new 0 0 118.8 4000;" xml:space="preserve">
<style type="text/css">
	.st0{fill:#FFFFFF;}
	.st1{fill:none;stroke:#127DAC;}
	.st2{fill:#7FFFC7;}
	.st3{fill-rule:evenodd;clip-rule:evenodd;fill:#FFFFFF;}
	.st4{filter:url(#Adobe_OpacityMaskFilter);}
	.st5{mask:url(#mask-2_2_);fill-rule:evenodd;clip-rule:evenodd;fill:#458596;}
	.st6{fill:#458596;}
</style>
<g id="mobile-meny-white" transform="translate(-329.000000, -13.000000)">
	<g id="Group-2" transform="translate(313.000000, 0.000000)">
		<circle id="Oval-3" class="st0" cx="30" cy="27" r="13"/>
		<path id="Path-2-Copy-2" class="st1" d="M22,23.5h16"/>
		<path id="Path-2-Copy-3" class="st1" d="M22,27.5h16"/>
		<path id="Path-2-Copy-4" class="st1" d="M22,31.5h16"/>
	</g>
</g>
<g id="mobile-meny-green_2_" transform="translate(-329.000000, -13.000000)">
	<g id="Group-2_1_" transform="translate(313.000000, 0.000000)">
		<circle id="Oval-3_1_" class="st2" cx="30" cy="127" r="13"/>
		<path id="Path-2-Copy-2_1_" class="st1" d="M22,123.5h16"/>
		<path id="Path-2-Copy-3_1_" class="st1" d="M22,127.5h16"/>
		<path id="Path-2-Copy-4_1_" class="st1" d="M22,131.5h16"/>
	</g>
</g>
<g id="plus-white" transform="translate(-2502.000000, -140.000000)">
	<g id="Group-12-Copy-3" transform="translate(6.000000, 6.000000)">
		<g id="Line">
			<path class="st0" d="M2503,348c-0.6,0-1-0.4-1-1v-10c0-0.6,0.4-1,1-1s1,0.4,1,1v10C2504,347.5,2503.6,348,2503,348z"/>
		</g>
		<g id="Line_1_">
			<path class="st0" d="M2508,343h-10c-0.6,0-1-0.4-1-1s0.4-1,1-1h10c0.6,0,1,0.4,1,1S2508.6,343,2508,343z"/>
		</g>
	</g>
</g>
<g id="delete-white" transform="translate(-2502.000000, -140.000000)">
	<g id="Group-12-Copy-3_1_" transform="translate(6.000000, 6.000000)">
		<g id="Line_3_">
			<path class="st0" d="M2498.8,446.2c-0.4-0.4-0.4-1,0-1.4l7.1-7.1c0.4-0.4,1-0.4,1.4,0s0.4,1,0,1.4l-7.1,7.1
				C2499.8,446.6,2499.2,446.6,2498.8,446.2z"/>
		</g>
		<g id="Line_2_">
			<path class="st0" d="M2505.8,446.2l-7.1-7.1c-0.4-0.4-0.4-1,0-1.4s1-0.4,1.4,0l7.1,7.1c0.4,0.4,0.4,1,0,1.4
				S2506.3,446.6,2505.8,446.2z"/>
		</g>
	</g>
</g>
<g id="camera-white">
	<g>
		<path id="Shape" class="st0" d="M16.1,406.6h-2.2c-0.1,0-0.2-0.1-0.2-0.1L13,405c-0.3-0.7-0.9-1-1.7-1H7.7C7,404,6.3,404.4,6,405
			l-0.7,1.4c0,0.1-0.1,0.1-0.2,0.1H2.9c-1.6,0-2.9,1.3-2.9,2.9v8.9c0,1.6,1.3,2.9,2.9,2.9h13.3c1.6,0,2.9-1.3,2.9-2.9v-8.9
			C19,407.9,17.7,406.6,16.1,406.6z M17.9,418.3c0,1-0.8,1.7-1.7,1.7H2.9c-1,0-1.7-0.8-1.7-1.7v-8.8c0-1,0.8-1.7,1.7-1.7h2.2
			c0.5,0,1-0.3,1.2-0.8l0.7-1.4c0.1-0.2,0.4-0.4,0.6-0.4h3.7c0.3,0,0.5,0.2,0.6,0.4l0.7,1.4c0.3,0.5,0.7,0.8,1.3,0.8h2.2
			c1,0,1.7,0.8,1.7,1.7V418.3z"/>
		<path class="st0" d="M9.5,408.8c-2.6,0-4.7,2.2-4.7,4.8c0,2.6,2.1,4.8,4.7,4.8s4.8-2.2,4.8-4.8C14.3,410.9,12.1,408.8,9.5,408.8z
			 M9.5,417.3c-2,0-3.6-1.6-3.6-3.7c0-2,1.6-3.7,3.6-3.7c2,0,3.6,1.6,3.6,3.7C13.1,415.6,11.5,417.3,9.5,417.3z"/>
		<path id="Path" class="st3" d="M9.6,411.2c-0.3,0-0.6,0.3-0.6,0.6s0.3,0.6,0.6,0.6c0.6,0,1.2,0.5,1.2,1.2c0,0.3,0.3,0.6,0.6,0.6
			c0.3,0,0.6-0.3,0.6-0.6C11.9,412.2,10.8,411.2,9.6,411.2z"/>
	</g>
</g>
<g id="help-open">
	<g>
		<g id="Group-3">
			<g id="Clip-2">
			</g>
			<defs>
				<filter id="Adobe_OpacityMaskFilter" filterUnits="userSpaceOnUse" x="1.5" y="500.9" width="29" height="29">
					<feColorMatrix  type="matrix" values="1 0 0 0 0  0 1 0 0 0  0 0 1 0 0  0 0 0 1 0"/>
				</filter>
			</defs>
			<mask maskUnits="userSpaceOnUse" x="1.5" y="500.9" width="29" height="29" id="mask-2_2_">
				<g class="st4">
					<polygon id="path-1_2_" class="st3" points="1.5,500.9 30.5,500.9 30.5,529.9 1.5,529.9 					"/>
				</g>
			</mask>
			<path id="Fill-1" class="st5" d="M18.3,516.7c-1.1,0.4-1.9,0.7-1.9,1.9v0.8h-2.9l0-0.8c-0.1-2.3,0.7-3.6,2.8-4.4l1-0.4
				c1.1-0.4,1.8-1.3,1.8-2.4c0-1.6-1.1-2.5-2.6-2.5c-1.4,0-2.8,1.1-2.8,2.9h-3.1c0-3.8,2.7-6,6-6s5.7,2.1,5.7,5.5
				C22.2,514.1,20.5,516,18.3,516.7 M14.9,526c-1.2,0-2.2-0.9-2.2-2.1c0-1.2,1-2.1,2.2-2.1s2.2,0.9,2.2,2.1
				C17.1,525.1,16.1,526,14.9,526 M16,500.9c-8,0-14.5,6.5-14.5,14.5c0,8,6.5,14.5,14.5,14.5c8,0,14.5-6.5,14.5-14.5
				C30.5,507.4,24,500.9,16,500.9"/>
		</g>
	</g>
</g>
<g id="help-close" transform="translate(-2502.000000, -140.000000)">
	<g id="Group-12-Copy-3_2_" transform="translate(6.000000, 6.000000)">
		<g id="Line_5_">
			<g id="Symbols">
				<g transform="translate(-922.000000, -11.000000)">
					<g transform="translate(922.000000, 11.000000)">
						<g id="Path-2">
							<path class="st6" d="M2499.5,759.9c-0.4,0-0.7-0.1-1-0.4c-0.3-0.3-0.4-0.7-0.4-1c0-0.4,0.1-0.7,0.4-1l22-22
								c0.6-0.6,1.5-0.6,2.1,0c0.3,0.3,0.4,0.7,0.4,1c0,0.4-0.1,0.7-0.4,1l-22,22C2500.2,759.8,2499.9,759.9,2499.5,759.9z"/>
						</g>
						<g>
							<path class="st6" d="M2521.5,759.9c-0.4,0-0.7-0.1-1-0.4l-22-22c-0.6-0.6-0.6-1.5,0-2.1c0.6-0.6,1.5-0.6,2.1,0l22,22
								c0.6,0.6,0.6,1.5,0,2.1C2522.2,759.7,2521.8,759.9,2521.5,759.9z"/>
						</g>
					</g>
				</g>
			</g>
		</g>
	</g>
</g>
</svg>
