<?xml version="1.0" encoding="utf-8"?>
<!-- Generator: Adobe Illustrator 22.1.0, SVG Export Plug-In . SVG Version: 6.00 Build 0)  -->
<svg version="1.1" id="Layer_1" xmlns="http://www.w3.org/2000/svg" xmlns:xlink="http://www.w3.org/1999/xlink" x="0px" y="0px"
	 width="118.8px" height="4000px" viewBox="0 0 118.8 4000" style="enable-background:new 0 0 118.8 4000;" xml:space="preserve">
<style type="text/css">
	.st0{fill:#FFFFFF;}
	.st1{fill:none;stroke:#127DAC;}
	.st2{fill:#7FFFC7;}
	.st3{fill:#6EB0CC;}
	.st4{fill:#D4E2E4;}
	.st5{fill:#F6F5F6;}
	.st6{fill:#017CAF;}
	.st7{opacity:0.1;}
	.st8{fill:#59A4C5;}
	.st9{fill:#9FDFB4;}
	.st10{fill:#1D764F;}
	.st11{fill:#DED1CA;}
	.st12{fill:#C7BCB5;}
	.st13{fill:#378663;}
	.st14{fill:#72616C;}
	.st15{fill:none;stroke:#44303C;stroke-width:2;}
	.st16{fill:none;stroke:#FFFFFF;stroke-width:2;}
	.st17{fill:none;stroke:#000000;stroke-width:2;}
	.st18{fill:none;stroke:#0E6489;stroke-width:2;}
	.st19{fill:none;stroke:#72616C;}
	.st20{fill:none;stroke:#72616C;stroke-linecap:round;}
	.st21{fill:#D3F5DF;}
	.st22{fill:#127DAC;}
	.st23{fill:#44303C;}
	.st24{fill:#94878F;}
</style>
<g id="mobile-meny-white" transform="translate(-329.000000, -13.000000)">
	<g id="Group-2" transform="translate(313.000000, 0.000000)">
		<circle id="Oval-3" class="st0" cx="30" cy="27" r="13"/>
		<path id="Path-2-Copy-2" class="st1" d="M22,23.5h16"/>
		<path id="Path-2-Copy-3" class="st1" d="M22,27.5h16"/>
		<path id="Path-2-Copy-4" class="st1" d="M22,31.5h16"/>
	</g>
</g>
<g id="mobile-meny-green_2_" transform="translate(-329.000000, -13.000000)">
	<g id="Group-2_1_" transform="translate(313.000000, 0.000000)">
		<circle id="Oval-3_1_" class="st2" cx="30" cy="127" r="13"/>
		<path id="Path-2-Copy-2_1_" class="st1" d="M22,123.5h16"/>
		<path id="Path-2-Copy-3_1_" class="st1" d="M22,127.5h16"/>
		<path id="Path-2-Copy-4_1_" class="st1" d="M22,131.5h16"/>
	</g>
</g>
<g id="language-white" transform="translate(-181.000000, -17.000000)">
	<path id="Shape" class="st0" d="M192,218L192,218L192,218c-5.5,0-10,4.5-10,10s4.5,10,10,10s10-4.5,10-10S197.5,218,192,218z
		 M188.8,219.7c-0.8,1-1.5,2.3-1.9,3.9c-0.7-0.3-1.4-0.6-2-1C185.9,221.3,187.3,220.3,188.8,219.7z M184.3,223.5
		c0.7,0.5,1.4,0.8,2.3,1.2c-0.2,0.9-0.3,1.8-0.3,2.8h-3.2C183.2,226,183.6,224.7,184.3,223.5z M183.1,228.5h3.2c0,1,0.1,1.9,0.3,2.8
		c-0.9,0.3-1.7,0.7-2.3,1.2C183.6,231.3,183.2,230,183.1,228.5z M184.9,233.4c0.6-0.4,1.2-0.7,2-1c0.4,1.6,1.1,3,2,4
		C187.2,235.8,185.9,234.7,184.9,233.4z M191.5,236.9c-1.6-0.3-2.9-2.3-3.6-4.9c1.1-0.3,2.3-0.5,3.6-0.5V236.9z M191.5,230.4
		c-1.3,0.1-2.7,0.2-3.8,0.6c-0.2-0.8-0.2-1.6-0.3-2.4h4.1V230.4z M191.5,227.5h-4.1c0-0.9,0.1-1.7,0.3-2.5c1.2,0.3,2.5,0.5,3.8,0.5
		V227.5z M191.5,224.4c-1.3,0-2.5-0.2-3.6-0.5c0.7-2.5,2-4.4,3.6-4.8V224.4z M192.5,219.1c1.5,0.3,2.9,2.2,3.6,4.8
		c-1.1,0.3-2.3,0.5-3.6,0.5V219.1z M192.5,225.5c1.3-0.1,2.6-0.2,3.8-0.6c0.2,0.8,0.3,1.7,0.3,2.5h-4.1V225.5z M192.5,228.5h4.1
		c0,0.9-0.1,1.7-0.3,2.4c-1.2-0.3-2.5-0.5-3.8-0.6V228.5z M192.5,236.9v-5.4c1.3,0.1,2.5,0.2,3.6,0.5
		C195.4,234.6,194.1,236.5,192.5,236.9z M195.2,236.3c0.9-1,1.5-2.4,2-4c0.8,0.3,1.4,0.6,2,1C198.1,234.7,196.8,235.8,195.2,236.3z
		 M199.7,232.5c-0.7-0.5-1.4-0.9-2.3-1.2c0.2-0.9,0.3-1.8,0.3-2.8h3.2C200.8,230,200.4,231.3,199.7,232.5z M200.9,227.5h-3.2
		c0-1-0.1-2-0.3-2.9c0.9-0.3,1.6-0.7,2.3-1.2C200.4,224.7,200.8,226,200.9,227.5z M197.1,223.6c-0.4-1.6-1.1-2.9-1.9-3.9
		c1.6,0.6,2.9,1.6,3.9,2.9C198.5,223,197.9,223.3,197.1,223.6z"/>
</g>
<g id="language-green" transform="translate(-181.000000, -17.000000)">
	<path id="Shape_22_" class="st2" d="M192,318L192,318L192,318c-5.5,0-10,4.5-10,10s4.5,10,10,10s10-4.5,10-10S197.5,318,192,318z
		 M188.8,319.7c-0.8,1-1.5,2.3-1.9,3.9c-0.7-0.3-1.4-0.6-2-1C185.9,321.3,187.3,320.3,188.8,319.7z M184.3,323.5
		c0.7,0.5,1.4,0.8,2.3,1.2c-0.2,0.9-0.3,1.8-0.3,2.8h-3.2C183.2,326,183.6,324.7,184.3,323.5z M183.1,328.5h3.2c0,1,0.1,1.9,0.3,2.8
		c-0.9,0.3-1.7,0.7-2.3,1.2C183.6,331.3,183.2,330,183.1,328.5z M184.9,333.4c0.6-0.4,1.2-0.7,2-1c0.4,1.6,1.1,3,2,4
		C187.2,335.8,185.9,334.7,184.9,333.4z M191.5,336.9c-1.6-0.3-2.9-2.3-3.6-4.9c1.1-0.3,2.3-0.5,3.6-0.5V336.9z M191.5,330.4
		c-1.3,0.1-2.7,0.2-3.8,0.6c-0.2-0.8-0.2-1.6-0.3-2.4h4.1V330.4z M191.5,327.5h-4.1c0-0.9,0.1-1.7,0.3-2.5c1.2,0.3,2.5,0.5,3.8,0.5
		V327.5z M191.5,324.4c-1.3,0-2.5-0.2-3.6-0.5c0.7-2.5,2-4.4,3.6-4.8V324.4z M192.5,319.1c1.5,0.3,2.9,2.2,3.6,4.8
		c-1.1,0.3-2.3,0.5-3.6,0.5V319.1z M192.5,325.5c1.3-0.1,2.6-0.2,3.8-0.6c0.2,0.8,0.3,1.7,0.3,2.5h-4.1V325.5z M192.5,328.5h4.1
		c0,0.9-0.1,1.7-0.3,2.4c-1.2-0.3-2.5-0.5-3.8-0.6V328.5z M192.5,336.9v-5.4c1.3,0.1,2.5,0.2,3.6,0.5
		C195.4,334.6,194.1,336.5,192.5,336.9z M195.2,336.3c0.9-1,1.5-2.4,2-4c0.8,0.3,1.4,0.6,2,1C198.1,334.7,196.8,335.8,195.2,336.3z
		 M199.7,332.5c-0.7-0.5-1.4-0.9-2.3-1.2c0.2-0.9,0.3-1.8,0.3-2.8h3.2C200.8,330,200.4,331.3,199.7,332.5z M200.9,327.5h-3.2
		c0-1-0.1-2-0.3-2.9c0.9-0.3,1.6-0.7,2.3-1.2C200.4,324.7,200.8,326,200.9,327.5z M197.1,323.6c-0.4-1.6-1.1-2.9-1.9-3.9
		c1.6,0.6,2.9,1.6,3.9,2.9C198.5,323,197.9,323.3,197.1,323.6z"/>
</g>
<g id="logginn-white" transform="translate(-264.000000, -19.000000)">
	<g id="Page-1" transform="translate(265.000000, 20.000000)">
		<g id="Stroke-1">
			<path class="st0" d="M16.4,416c-2-2.5-4.6-3.9-7.4-3.9s-5.4,1.4-7.4,3.9l-1.2-0.9c2.3-2.9,5.3-4.5,8.6-4.5c3.2,0,6.3,1.6,8.6,4.5
				L16.4,416z"/>
		</g>
		<g id="Stroke-3">
			<path class="st0" d="M8.7,409.6c-2.6,0-4.7-2.1-4.7-4.7s2.1-4.7,4.7-4.7s4.7,2.1,4.7,4.7S11.3,409.6,8.7,409.6z M8.7,401.8
				c-1.8,0-3.2,1.4-3.2,3.2c0,1.8,1.4,3.2,3.2,3.2s3.2-1.4,3.2-3.2C11.9,403.2,10.5,401.8,8.7,401.8z"/>
		</g>
	</g>
</g>
<g id="logginn-green" transform="translate(-264.000000, -19.000000)">
	<g id="Page-1_1_" transform="translate(265.000000, 20.000000)">
		<g id="Stroke-1_1_">
			<path class="st2" d="M16.4,516c-2-2.5-4.6-3.9-7.4-3.9s-5.4,1.4-7.4,3.9l-1.2-0.9c2.3-2.9,5.3-4.5,8.6-4.5c3.2,0,6.3,1.6,8.6,4.5
				L16.4,516z"/>
		</g>
		<g id="Stroke-3_1_">
			<path class="st2" d="M8.7,509.6c-2.6,0-4.7-2.1-4.7-4.7s2.1-4.7,4.7-4.7s4.7,2.1,4.7,4.7S11.3,509.6,8.7,509.6z M8.7,501.8
				c-1.8,0-3.2,1.4-3.2,3.2c0,1.8,1.4,3.2,3.2,3.2s3.2-1.4,3.2-3.2C11.9,503.2,10.5,501.8,8.7,501.8z"/>
		</g>
	</g>
</g>
<g id="arrow-down-white" transform="translate(-252.000000, -252.000000)">
	<g id="Path-2-Copy">
		<g>
			<polygon class="st0" points="261.5,864.6 253.2,854.6 254.8,853.4 261.5,861.4 268.2,853.4 269.8,854.6 			"/>
		</g>
	</g>
</g>
<g id="arrow-down-up" transform="translate(-252.000000, -252.000000)">
	<g id="Path-2-Copy_1_">
		<g>
			<polygon class="st0" points="261.5,953.4 269.8,963.3 268.2,964.6 261.5,956.5 254.8,964.6 253.2,963.3 			"/>
		</g>
	</g>
</g>
<g id="mobilnav-plus" transform="translate(-2502.000000, -140.000000)">
	<g id="Group-12-Copy-3" transform="translate(6.000000, 6.000000)">
		<g id="Line">
			<path class="st0" d="M2503,948c-0.6,0-1-0.4-1-1v-10c0-0.6,0.4-1,1-1s1,0.4,1,1v10C2504,947.5,2503.6,948,2503,948z"/>
		</g>
		<g id="Line_1_">
			<path class="st0" d="M2508,943h-10c-0.6,0-1-0.4-1-1s0.4-1,1-1h10c0.6,0,1,0.4,1,1S2508.6,943,2508,943z"/>
		</g>
	</g>
</g>
<g id="mobilnav-minus" transform="translate(-2502.000000, -140.000000)">
	<g id="Group-12-Copy-3_1_" transform="translate(6.000000, 6.000000)">
		<g id="Line_2_">
			<path class="st0" d="M2508,1043h-10c-0.6,0-1-0.4-1-1s0.4-1,1-1h10c0.6,0,1,0.4,1,1S2508.6,1043,2508,1043z"/>
		</g>
	</g>
</g>
<g id="joddadmin-small" transform="translate(-1060.000000, -77.000000)">
	<g id="jobbadmin-small-icon" transform="translate(1060.000000, 77.000000)">
		<circle id="Oval" class="st3" cx="16" cy="1016" r="15"/>
		<path id="Rectangle-path" class="st4" d="M11.3,1007.6h9.2c1.2,0,2.3,1,2.3,2.3v13.4c0,1.2-1,2.3-2.3,2.3h-9.2
			c-1.2,0-2.3-1-2.3-2.3v-13.4C9.1,1008.6,10.1,1007.6,11.3,1007.6z"/>
		<path id="Rectangle-path_1_" class="st5" d="M11.3,1007.6h8.9c1.2,0,2.3,1,2.3,2.3v13c0,1.2-1,2.3-2.3,2.3h-8.9
			c-1.2,0-2.3-1-2.3-2.3v-13C9.1,1008.6,10.1,1007.6,11.3,1007.6z"/>
		<path id="Shape_8_" class="st6" d="M13.7,1008.6h4.1h0.1l0.1-0.1v-1.2c0-0.1-0.1-0.2-0.2-0.2l-1.3-0.3v-0.2c0-0.4-0.4-0.8-0.8-0.8
			s-0.7,0.2-0.7,0.7v0.2l-1.3,0.3c-0.1,0-0.2,0.1-0.2,0.3v1.2C13.5,1008.5,13.6,1008.6,13.7,1008.6z M15.7,1006.1
			c0.2,0,0.3,0.1,0.3,0.3s-0.1,0.3-0.3,0.3s-0.3-0.1-0.3-0.3S15.6,1006.1,15.7,1006.1z"/>
		<ellipse id="Oval_1_" class="st6" cx="13.9" cy="1012.1" rx="1.5" ry="1.6"/>
		<path id="Shape_1_" class="st3" d="M15.7,1014.9c-0.2-0.3-0.9-0.5-1.4-0.7v-1h-0.8v1c-0.5,0.1-1.2,0.4-1.4,0.7
			c-0.2,0.6-0.3,1.5-0.3,1.5h4.3C16,1015.9,15.9,1015.4,15.7,1014.9z"/>
		<g id="Group" transform="translate(12.000000, 12.000000)" class="st7">
			<path id="Shape_2_" class="st3" d="M1.5,1001.9c0.1,0.2,0.4,0.4,0.6,0.3c0.1,0,0.2,0,0.2,0v-1H1.5V1001.9z"/>
		</g>
		<path id="Shape_3_" class="st3" d="M15,1012c0-0.6-0.5-1.1-1.1-1.1s-1.1,0.5-1.1,1.1c-0.2,0.1-0.3,0.3-0.3,0.5s0.1,0.4,0.3,0.4
			c0.2,0.6,0.6,1,1,1s0.9-0.4,1-1.1c0.1-0.1,0.2-0.2,0.2-0.4C15.2,1012.3,15.1,1012.1,15,1012z"/>
		<path id="Shape_4_" class="st3" d="M15.7,1014.9c-0.1-0.2-0.4-0.3-0.6-0.4c-0.1,0.6-0.6,1-1.2,1c-0.6,0-1.1-0.4-1.2-1
			c-0.2,0.1-0.4,0.2-0.6,0.4c-0.2,0.6-0.3,1.5-0.3,1.5h4.3C16,1015.9,15.9,1015.4,15.7,1014.9z"/>
		<g id="Group_1_" transform="translate(11.000000, 9.000000)" class="st7">
			<path id="Shape_5_" class="st3" d="M2.1,1003.7c0,0,1.6-1.1,1.5-1.7c-0.6-0.3-1.3-0.2-1.7,0.3C1.8,1002.8,1.8,1003.3,2.1,1003.7z
				"/>
		</g>
		<path id="Shape_6_" class="st6" d="M14.5,1010.9c-0.6-0.3-1.3-0.2-1.7,0.3c-0.2,0.4-0.1,1,0.1,1.4c0.5-0.3,0.9-0.7,1.3-1.1
			c0.1,0,0.5,0.2,0.5,1C15.1,1012.1,15.4,1011,14.5,1010.9z"/>
		<path id="Shape_7_" class="st6" d="M15.9,1014.9c-0.1-0.2-0.7-0.4-1.1-0.5c-0.1,0.4-0.4,0.7-0.8,0.7c-0.4,0-0.7-0.3-0.8-0.7
			c-0.4,0.1-1,0.3-1.1,0.5c-0.2,0.6-0.3,1.5-0.3,1.5h4.6C16.2,1015.9,16,1015.4,15.9,1014.9z"/>
		<rect id="Rectangle-path_2_" x="11.6" y="1017.8" class="st8" width="9" height="1"/>
		<rect id="Rectangle-path_3_" x="11.6" y="1020.1" class="st8" width="9" height="1"/>
		<rect id="Rectangle-path_4_" x="11.6" y="1022.4" class="st8" width="9" height="1"/>
	</g>
</g>
<g id="jobbsok-small" transform="translate(-880.000000, -75.000000)">
	<g id="Jobbsok-small-icon" transform="translate(880.000000, 75.000000)">
		<circle id="Oval_3_" class="st9" cx="16" cy="1115.9" r="15"/>
		<g id="Group_2_" transform="translate(7.000000, 7.000000)">
			
				<ellipse id="Oval_2_" transform="matrix(2.407778e-02 -0.9997 0.9997 2.407778e-02 -1096.98 1088.7189)" class="st10" cx="9.1" cy="1106.2" rx="5.9" ry="5.9"/>
			<path id="Shape_17_" class="st11" d="M15.9,1117.1c-0.6-1.2-3.4-2-5.3-2.5v-3.9H7.4v3.9c-1.8,0.5-4.7,1.3-5.3,2.5
				c-0.3,1.1-0.6,2.3-0.8,3.3c4.7,3,10.7,3,15.4,0C16.6,1119.2,16.3,1118.1,15.9,1117.1z"/>
			<path id="Shape_16_" class="st12" d="M7.4,1113.2c0.5,0.8,1.4,1.4,2.3,1.3c0.3,0,0.6-0.1,0.9-0.1v-3.7H7.4V1113.2z"/>
			<path id="Shape_15_" class="st11" d="M12.2,1109.5c-0.8-0.2-1.4-1.1-1.1-1.9c0.1-1,0.8-1.7,1.6-1.6c0.8,0.2,1.4,1.1,1.1,1.9
				C13.7,1108.9,13,1109.6,12.2,1109.5z"/>
			<path id="Shape_14_" class="st11" d="M13.2,1107.2c0-3.4-1.9-5.3-4.2-5.3s-4.2,1.9-4.2,5.3s1.9,6.1,4.2,6.1
				S13.2,1110.6,13.2,1107.2z"/>
			<path id="Shape_13_" class="st11" d="M3.9,1108c-0.1-0.4-0.1-0.8,0.2-1.2c0.2-0.4,0.6-0.6,1-0.7c0.8-0.1,1.5,0.6,1.6,1.6
				c0.2,0.8-0.3,1.7-1.1,1.9C4.8,1109.7,4,1108.9,3.9,1108z"/>
			<path id="Shape_12_" class="st12" d="M5.9,1108.5c0,0,6.1-4,5.9-6.4c-2.1-1.3-4.9-0.7-6.4,1.2C4.7,1105,4.9,1107,5.9,1108.5z"/>
			<path id="Shape_11_" class="st10" d="M5.5,1108.3c0,0,6.2-4,5.9-6.4c-2.1-1.3-4.8-0.7-6.3,1.2C4.3,1104.8,4.4,1106.8,5.5,1108.3z
				"/>
			<path id="Shape_10_" class="st10" d="M10.4,1104c0,0,1.8,0.5,2.1,3.8c1-1.4,2-5.5-1.2-5.8C11.1,1102.4,10.4,1104,10.4,1104z"/>
		</g>
		<path id="Shape_9_" class="st13" d="M16,1129.6c3,0,5.8-0.9,8.3-2.6c-0.2-1-0.5-2-0.8-3c-0.5-0.9-2.7-1.6-4.4-2.1
			c-0.1,1.6-1.5,2.8-3.1,2.8c-1.6,0.1-3-1.2-3.1-2.8c-1.6,0.5-3.8,1.2-4.3,2.1c-0.3,1-0.5,2.1-0.7,3.1
			C10.3,1128.7,13.1,1129.6,16,1129.6z"/>
	</g>
</g>
<g id="facebook-white" transform="translate(-899.000000, -152.000000)">
	<g id="if_online_social_media_facebook_734386-copy" transform="translate(899.000000, 152.000000)">
		<path id="Shape_19_" class="st0" d="M14,1201c-7.2,0-13,5.8-13,13s5.8,13,13,13s13-5.8,13-13S21.2,1201,14,1201z"/>
		<path id="Shape_18_" class="st14" d="M12.1,1221.2h3v-7.2h2l0.3-2.5h-2.3v-1.2c0-0.7,0.1-1,1-1h1.2v-2.5h-2
			c-2.4,0-3.2,1.2-3.2,3.2v1.5h-1.5v2.5h1.5C12.1,1214,12.1,1221.2,12.1,1221.2z"/>
	</g>
</g>
<g id="linkedin-white" transform="translate(-899.000000, -111.000000)">
	<g id="if_online_social_media_linked_in_734383-copy" transform="translate(899.000000, 111.000000)">
		<g id="Group_3_">
			<path id="Shape_21_" class="st0" d="M14,1426.7c-7,0-12.7-5.7-12.7-12.7s5.7-12.7,12.7-12.7s12.7,5.7,12.7,12.7
				S21,1426.7,14,1426.7z"/>
		</g>
		<path id="Shape_20_" class="st14" d="M20.7,1419.6v-5c0-2.7-1.4-3.9-3.3-3.9c-1.5,0-2.2,0.8-2.6,1.4v-1.2h-2.9c0,0.8,0,8.7,0,8.7
			h2.9v-4.9c0-0.3,0-0.5,0.1-0.7c0.2-0.5,0.7-1.1,1.5-1.1c1,0,1.5,0.8,1.5,2v4.7H20.7z M8.9,1409.8c1,0,1.6-0.7,1.6-1.5
			c0-0.9-0.6-1.5-1.6-1.5s-1.6,0.6-1.6,1.5C7.3,1409.1,7.9,1409.8,8.9,1409.8L8.9,1409.8L8.9,1409.8z M10.3,1419.6v-8.7H7.4v8.7
			H10.3z"/>
	</g>
</g>
<g id="delete-category-black" transform="translate(-322.000000, -187.000000)">
	<g>
		<path id="Path-4-Copy" class="st15" d="M323,1694l15.8,15.8"/>
		<path id="Path-4-Copy-2" class="st15" d="M338.8,1694l-15.8,15.8"/>
	</g>
</g>
<g id="delete-category-white" transform="translate(-322.000000, -187.000000)">
	<g>
		<path id="Path-4-Copy_1_" class="st16" d="M323,1794l15.8,15.8"/>
		<path id="Path-4-Copy-2_1_" class="st16" d="M338.8,1794l-15.8,15.8"/>
	</g>
</g>
<g id="arrow-down-black" transform="translate(-746.000000, -368.000000)">
	<polyline class="st17" points="758.5,2075.6 753.3,2081.5 747.6,2076.1 	"/>
</g>
<g id="arrow-down-white_1_" transform="translate(-746.000000, -368.000000)">
	<polyline class="st16" points="758.4,2175.6 753.3,2181.6 747.5,2176.2 	"/>
</g>
<g id="arrow-left-black" transform="translate(-259.000000, -363.000000)">
	<polyline class="st17" points="260.6,2270.6 266.3,2276.1 260.6,2281.5 	"/>
</g>
<g id="arrow-left-white" transform="translate(-259.000000, -363.000000)">
	<polyline class="st16" points="260.6,2370.6 266.3,2376.1 260.6,2381.5 	"/>
</g>
<g id="arrow-left-blue-larger" transform="translate(-573.000000, -516.000000)">
	<polyline class="st18" points="574.6,2623.6 580.3,2629.1 574.6,2634.5 	"/>
</g>
<g id="position-gray" transform="translate(-576.000000, -634.000000)">
	<g id="Fill-1">
		<path class="st14" d="M582,2845.1c1.2,0,2.1,1,2.1,2.2s-1,2.2-2.1,2.2c-1.2,0-2.1-1-2.1-2.2C579.8,2846.1,580.8,2845.1,582,2845.1
			 M582,2844.4c-1.6,0-2.8,1.3-2.8,2.9c0,1.6,1.3,2.9,2.8,2.9c1.6,0,2.8-1.3,2.8-2.9S583.6,2844.4,582,2844.4 M582,2842.3
			c2.6,0,4.7,2.2,4.7,4.8c0,2.1-2.9,7.9-4.2,10.3c-0.1,0.2-0.3,0.3-0.5,0.3l0,0c-0.2,0-0.4-0.1-0.5-0.3c-1.3-2.4-4.2-8.2-4.2-10.3
			C577.3,2844.4,579.4,2842.3,582,2842.3 M582,2841.4c-3,0-5.5,2.5-5.5,5.6c0,2.2,2.8,7.8,4.4,11c0.2,0.4,0.6,0.6,1,0.6l0,0
			c0.4,0,0.8-0.2,1-0.6c1.7-3.1,4.4-8.8,4.4-11C587.5,2843.9,585,2841.4,582,2841.4"/>
	</g>
</g>
<g id="clock-gray" transform="translate(-719.000000, -635.000000)">
	<g>
		<path id="Fill-1_1_" class="st19" d="M728,2943c-4.4,0-8,3.6-8,8s3.6,8,8,8s8-3.6,8-8S732.4,2943,728,2943"/>
		<polyline id="Path" class="st20" points="728,2945.9 728,2951.1 731.2,2954.2 		"/>
	</g>
</g>
<g id="calendar-bg-green">
	<path id="Kalender" class="st21" d="M36,2420v-10c0-1.1,0.9-2,2-2s2,0.9,2,2v10h41v-10c0-1.1,0.9-2,2-2s2,0.9,2,2v10h26
		c3.3,0,6,2.7,6,6v9v12H1v-12v-9c0-3.3,2.7-6,6-6H36z M1,2450h116v90H1V2450z"/>
</g>
<g id="calendar-bg-blue">
	<path class="st22" d="M36,2620v-10c0-1.1,0.9-2,2-2s2,0.9,2,2v10h41v-10c0-1.1,0.9-2,2-2s2,0.9,2,2v10h26c3.3,0,6,2.7,6,6v9v12H1
		v-12v-9c0-3.3,2.7-6,6-6H36z M1,2650h116v90H1V2650z"/>
</g>
<g id="form-error-small" transform="translate(-597.000000, -2323.000000)">
	<g id="ikon_varning_small" transform="translate(597.000000, 2323.000000)">
		<path id="Fill-231" class="st23" d="M17.5,2821.1h-15c-0.1,0-0.2-0.1-0.1-0.2l7.4-11.5c0.1-0.1,0.2-0.1,0.3,0l7.6,11.5
			C17.7,2821.1,17.6,2821.1,17.5,2821.1 M18.9,2821l-8.2-12.6c-0.2-0.3-0.4-0.4-0.7-0.4s-0.6,0.2-0.7,0.4l-8,12.5
			c-0.2,0.3-0.2,0.6,0,0.8c0.1,0.2,0.4,0.4,0.8,0.4h16.3c0.3,0,0.6-0.1,0.8-0.4C19,2821.5,19,2821.2,18.9,2821"/>
		<path id="Rectangle-4" class="st23" d="M10,2811.5L10,2811.5c0.6,0,1,0.4,1,1v4.2c0,0.6-0.4,1-1,1l0,0c-0.6,0-1-0.4-1-1v-4.2
			C9,2812,9.4,2811.5,10,2811.5z"/>
		<ellipse id="Oval-2" class="st23" cx="10" cy="2819.5" rx="1" ry="1"/>
	</g>
</g>
<g id="icon-email_1_" transform="translate(-243.000000, -1810.000000)">
	<path id="Shape-Copy-4" class="st24" d="M263.3,4718h-16.7c-0.9,0-1.7,0.8-1.7,1.7v11.7c0,0.9,0.8,1.7,1.7,1.7h16.7
		c0.9,0,1.7-0.8,1.7-1.7v-11.7C265,4718.7,264.2,4718,263.3,4718z M262.7,4721.1l-7.1,6.6c-0.3,0.3-0.9,0.3-1.2,0l-7.1-6.6
		c-0.3-0.3-0.3-0.4,0.1-0.1l6.9,4.1c0.4,0.2,1,0.2,1.4,0l6.9-4.1C263,4720.7,263.1,4720.8,262.7,4721.1z"/>
</g>
<g id="icon-linkedin_1_" transform="translate(-243.000000, -1841.000000)">
	<path id="Page-1_2_" class="st24" d="M248.4,4865.4h3v-9h-3V4865.4z M258.8,4856.1c2,0,3.5,1.3,3.5,4.1v5.2h-3v-4.8
		c0-1.2-0.4-2-1.5-2c-0.8,0-1.3,0.6-1.5,1.1c-0.1,0.2-0.1,0.5-0.1,0.7v5.1h-3c0,0,0-8.2,0-9h3v1.3
		C256.5,4857,257.2,4856.1,258.8,4856.1z M250,4852c1,0,1.7,0.7,1.7,1.6s-0.7,1.6-1.7,1.6l0,0c-1,0-1.7-0.7-1.7-1.6
		S248.9,4852,250,4852z M248,4849c-1.7,0-3,1.4-3,3v14c0,1.7,1.4,3,3,3h14c1.7,0,3-1.4,3-3v-14c0-1.7-1.4-3-3-3H248z"/>
</g>
<g id="icon-phobe" transform="translate(-246.000000, -1875.000000)">
	<path id="Combined-Shape-Copy-4" class="st24" d="M254.7,4998.3c0.9,1.1,2.2,0.3,2.2,0.3l5.1,4.1c-1.4,0.9-3.3,1.3-3.3,1.3
		c-3.8,0.5-7.2-4.6-8.6-6.5c-1.3-1.9-2.1-5.4-2.2-9.4c-0.1-4,4.4-4,4.4-4l0.2,5.8c-1.7,0.7-0.9,2.5-0.9,2.5
		S253.8,4997.1,254.7,4998.3z M254.1,4989.3c-0.2,0.2-1,0.6-1.1,0.3c-0.1-0.2-0.2-5.6-0.2-5.6s0.3-0.1,1,0.2
		c0.6,0.3,0.6,0.6,0.6,0.6l0.1,4C254.5,4988.8,254.4,4989.1,254.1,4989.3z M262.7,5000.4c0,0,0.4,0.3,0.3,0.7
		c-0.1,0.4-0.4,1.3-0.4,1.3l-5.2-4l1.7-0.5c0,0,0.3-0.1,0.7,0.2C260.3,4998.5,262.7,5000.4,262.7,5000.4z"/>
</g>
<g id="mail-large_1_">
	<g id="mail-large-group" transform="translate(818.000000, 805.000000)">
		<circle id="Oval-2_2_" class="st0" cx="-792" cy="2437" r="25"/>
		<g id="icon-email-blå" transform="translate(14.953488, 17.441860)">
			<path id="Shape-Copy-4_2_" class="st22" d="M-797.8,2412h-17.4c-1,0-1.7,0.8-1.7,1.8v12.5c0,1,0.8,1.8,1.7,1.8h17.4
				c1,0,1.7-0.8,1.7-1.8v-12.5C-796.1,2412.8-796.9,2412-797.8,2412z M-798.5,2415.3l-7.4,7.1c-0.4,0.3-0.9,0.3-1.3,0l-7.4-7.1
				c-0.4-0.3-0.3-0.4,0.1-0.1l7.2,4.4c0.4,0.3,1.1,0.3,1.5,0l7.2-4.4C-798.2,2414.9-798.1,2414.9-798.5,2415.3z"/>
		</g>
	</g>
</g>
<g id="phone-large_1_">
	<g id="phone-large-group" transform="translate(819.000000, 921.000000)">
		<circle id="Oval-2-Copy_1_" class="st0" cx="-793" cy="2421" r="25"/>
		<g id="icon-phone-blå" transform="translate(15.909091, 13.636364)">
			<path id="Combined-Shape-Copy-4_2_" class="st22" d="M-810.4,2412.2c1,1.3,2.5,0.3,2.5,0.3l5.8,4.6c-1.6,1-3.8,1.5-3.8,1.5
				c-4.4,0.6-8.2-5.2-9.7-7.4c-1.5-2.2-2.4-6.2-2.5-10.7c-0.1-4.5,5-4.6,5-4.6l0.2,6.6c-1.9,0.8-1,2.8-1,2.8
				S-811.4,2410.9-810.4,2412.2z M-811,2402c-0.3,0.3-1.1,0.7-1.2,0.4c-0.1-0.3-0.2-6.4-0.2-6.4s0.4-0.1,1.1,0.3
				c0.7,0.4,0.7,0.7,0.7,0.7l0.1,4.5C-810.6,2401.5-810.8,2401.8-811,2402z M-801.3,2414.6c0,0,0.5,0.4,0.3,0.8
				c-0.1,0.5-0.5,1.4-0.5,1.4l-5.9-4.5l1.9-0.5c0,0,0.3-0.1,0.8,0.3C-804.1,2412.4-801.3,2414.6-801.3,2414.6z"/>
		</g>
	</g>
</g>
</svg>
