<?xml version="1.0" encoding="utf-8"?>
<!-- Generator: Adobe Illustrator 23.0.1, SVG Export Plug-In . SVG Version: 6.00 Build 0)  -->
<svg version="1.1" id="Layer_1" xmlns="http://www.w3.org/2000/svg" xmlns:xlink="http://www.w3.org/1999/xlink" x="0px" y="0px"
	 width="118.8px" height="4000px" viewBox="0 0 118.8 4000" style="enable-background:new 0 0 118.8 4000;" xml:space="preserve">
<style type="text/css">
	.st0{fill:#FFFFFF;}
	.st1{fill:none;stroke:#127DAC;}
	.st2{fill:#7FFFC7;}
	.st3{fill-rule:evenodd;clip-rule:evenodd;fill:#FFFFFF;}
	.st4{fill-rule:evenodd;clip-rule:evenodd;fill:#458596;}
	.st5{fill:#458596;}
	.st6{fill-rule:evenodd;clip-rule:evenodd;fill:#17667C;}
</style>
<g id="mobile-meny-white" transform="translate(-329.000000, -13.000000)">
	<g id="Group-2" transform="translate(313.000000, 0.000000)">
		<circle id="Oval-3" class="st0" cx="30" cy="27" r="13"/>
		<path id="Path-2-Copy-2" class="st1" d="M22,23.5h16"/>
		<path id="Path-2-Copy-3" class="st1" d="M22,27.5h16"/>
		<path id="Path-2-Copy-4" class="st1" d="M22,31.5h16"/>
	</g>
</g>
<g id="mobile-meny-green_2_" transform="translate(-329.000000, -13.000000)">
	<g id="Group-2_1_" transform="translate(313.000000, 0.000000)">
		<circle id="Oval-3_1_" class="st2" cx="30" cy="127" r="13"/>
		<path id="Path-2-Copy-2_1_" class="st1" d="M22,123.5h16"/>
		<path id="Path-2-Copy-3_1_" class="st1" d="M22,127.5h16"/>
		<path id="Path-2-Copy-4_1_" class="st1" d="M22,131.5h16"/>
	</g>
</g>
<g id="plus-white">
	<g id="Group">
		<path id="Path_2_" class="st3" d="M4.4,209c0,0.3,0.2,0.5,0.5,0.5h1.9c0.3,0,0.5,0.2,0.5,0.5v1.9c0,0.3,0.2,0.5,0.5,0.5
			s0.5-0.2,0.5-0.5v-1.9c0-0.3,0.2-0.5,0.5-0.5H11c0.3,0,0.5-0.2,0.5-0.5s-0.2-0.5-0.5-0.5H9.1c-0.3,0-0.5-0.2-0.5-0.5V206
			c0-0.3-0.2-0.5-0.5-0.5s-0.5,0.2-0.5,0.5v1.9c0,0.3-0.2,0.5-0.5,0.5H5C4.7,208.4,4.4,208.7,4.4,209z"/>
		<path id="Shape_1_" class="st0" d="M8,214.9c3.3,0,5.9-2.7,5.9-5.9s-2.7-5.9-5.9-5.9s-5.9,2.7-5.9,5.9S4.7,214.9,8,214.9z M8,216
			c-3.9,0-7-3.1-7-7s3.1-7,7-7s7,3.1,7,7S11.9,216,8,216z"/>
	</g>
</g>
<g id="delete-white" transform="translate(-2502.000000, -140.000000)">
	<g id="Group-12-Copy-3_1_" transform="translate(6.000000, 6.000000)">
		<g id="Line_3_">
			<path class="st0" d="M2498.8,446.2c-0.4-0.4-0.4-1,0-1.4l7.1-7.1c0.4-0.4,1-0.4,1.4,0s0.4,1,0,1.4l-7.1,7.1
				C2499.8,446.6,2499.2,446.6,2498.8,446.2z"/>
		</g>
		<g id="Line_2_">
			<path class="st0" d="M2505.8,446.2l-7.1-7.1c-0.4-0.4-0.4-1,0-1.4s1-0.4,1.4,0l7.1,7.1c0.4,0.4,0.4,1,0,1.4
				S2506.3,446.6,2505.8,446.2z"/>
		</g>
	</g>
</g>
<g id="camera-white">
	<g>
		<path id="Shape" class="st0" d="M16.1,406.6h-2.2c-0.1,0-0.2-0.1-0.2-0.1L13,405c-0.3-0.7-0.9-1-1.7-1H7.7c-0.7,0-1.4,0.4-1.7,1
			l-0.7,1.4c0,0.1-0.1,0.1-0.2,0.1H2.9c-1.6,0-2.9,1.3-2.9,2.9v8.9c0,1.6,1.3,2.9,2.9,2.9h13.3c1.6,0,2.9-1.3,2.9-2.9v-8.9
			C19,407.9,17.7,406.6,16.1,406.6z M17.9,418.3c0,1-0.8,1.7-1.7,1.7H2.9c-1,0-1.7-0.8-1.7-1.7v-8.8c0-1,0.8-1.7,1.7-1.7h2.2
			c0.5,0,1-0.3,1.2-0.8l0.7-1.4c0.1-0.2,0.4-0.4,0.6-0.4h3.7c0.3,0,0.5,0.2,0.6,0.4l0.7,1.4c0.3,0.5,0.7,0.8,1.3,0.8h2.2
			c1,0,1.7,0.8,1.7,1.7L17.9,418.3L17.9,418.3z"/>
		<path class="st0" d="M9.5,408.8c-2.6,0-4.7,2.2-4.7,4.8c0,2.6,2.1,4.8,4.7,4.8s4.8-2.2,4.8-4.8C14.3,410.9,12.1,408.8,9.5,408.8z
			 M9.5,417.3c-2,0-3.6-1.6-3.6-3.7c0-2,1.6-3.7,3.6-3.7s3.6,1.6,3.6,3.7C13.1,415.6,11.5,417.3,9.5,417.3z"/>
		<path id="Path" class="st3" d="M9.6,411.2c-0.3,0-0.6,0.3-0.6,0.6s0.3,0.6,0.6,0.6c0.6,0,1.2,0.5,1.2,1.2c0,0.3,0.3,0.6,0.6,0.6
			s0.6-0.3,0.6-0.6C11.9,412.2,10.8,411.2,9.6,411.2z"/>
	</g>
</g>
<g id="help-open">
	<g>
		<g id="Group-3">
			<g id="Clip-2">
			</g>
			<path id="Fill-1" class="st4" d="M18.3,516.7c-1.1,0.4-1.9,0.7-1.9,1.9v0.8h-2.9v-0.8c-0.1-2.3,0.7-3.6,2.8-4.4l1-0.4
				c1.1-0.4,1.8-1.3,1.8-2.4c0-1.6-1.1-2.5-2.6-2.5c-1.4,0-2.8,1.1-2.8,2.9h-3.1c0-3.8,2.7-6,6-6s5.7,2.1,5.7,5.5
				C22.2,514.1,20.5,516,18.3,516.7 M14.9,526c-1.2,0-2.2-0.9-2.2-2.1c0-1.2,1-2.1,2.2-2.1s2.2,0.9,2.2,2.1S16.1,526,14.9,526
				 M16,500.9c-8,0-14.5,6.5-14.5,14.5c0,8,6.5,14.5,14.5,14.5s14.5-6.5,14.5-14.5C30.5,507.4,24,500.9,16,500.9"/>
		</g>
	</g>
</g>
<g id="help-close" transform="translate(-2502.000000, -140.000000)">
	<g id="Group-12-Copy-3_2_" transform="translate(6.000000, 6.000000)">
		<g id="Line_5_">
			<g id="Symbols">
				<g transform="translate(-922.000000, -11.000000)">
					<g transform="translate(922.000000, 11.000000)">
						<g id="Path-2">
							<path class="st5" d="M2499.5,759.9c-0.4,0-0.7-0.1-1-0.4c-0.3-0.3-0.4-0.7-0.4-1c0-0.4,0.1-0.7,0.4-1l22-22
								c0.6-0.6,1.5-0.6,2.1,0c0.3,0.3,0.4,0.7,0.4,1c0,0.4-0.1,0.7-0.4,1l-22,22C2500.2,759.8,2499.9,759.9,2499.5,759.9z"/>
						</g>
						<g>
							<path class="st5" d="M2521.5,759.9c-0.4,0-0.7-0.1-1-0.4l-22-22c-0.6-0.6-0.6-1.5,0-2.1s1.5-0.6,2.1,0l22,22
								c0.6,0.6,0.6,1.5,0,2.1C2522.2,759.7,2521.8,759.9,2521.5,759.9z"/>
						</g>
					</g>
				</g>
			</g>
		</g>
	</g>
</g>
<g id="UI">
	<g id="Saksbehandlare-tabell" transform="translate(-1294.000000, -341.000000)">
		<g transform="translate(1290.000000, 338.000000)">
			<g id="Path_1_">
				<path class="st6" d="M111.3,716.3c0.4,0.4,1,0.4,1.4,0l4.7-4.7c0.8-0.8-0.4-1.9-1.2-1.1l-3.2,3.2c-0.2,0.2-0.3,0.1-0.3-0.1v-8.7
					c0-0.4-0.4-0.8-0.8-0.8c-0.5,0-0.8,0.4-0.8,0.8v8.7c0,0.2-0.1,0.3-0.3,0.1l-3.2-3.2c-0.8-0.8-1.9,0.4-1.2,1.1L111.3,716.3z"/>
				<path class="st6" d="M119.4,720c0,0.2-0.2,0.4-0.4,0.4h-13.9c-0.2,0-0.4-0.2-0.4-0.4v-2.8c0-0.4-0.4-0.8-0.8-0.8
					c-0.5,0-0.8,0.4-0.8,0.8v3.6c0,0.7,0.6,1.2,1.2,1.2h15.5c0.7,0,1.2-0.5,1.2-1.2v-3.6c0-0.4-0.4-0.8-0.8-0.8
					c-0.5,0-0.8,0.4-0.8,0.8L119.4,720L119.4,720z"/>
			</g>
		</g>
	</g>
</g>
</svg>
