<?xml version="1.0" encoding="utf-8"?>
<!-- Generator: Adobe Illustrator 23.0.1, SVG Export Plug-In . SVG Version: 6.00 Build 0)  -->
<svg version="1.1" id="Layer_1" xmlns="http://www.w3.org/2000/svg" xmlns:xlink="http://www.w3.org/1999/xlink" x="0px" y="0px"
	 width="118.8px" height="4000px" viewBox="0 0 118.8 4000" style="enable-background:new 0 0 118.8 4000;" xml:space="preserve">
<style type="text/css">
	.st0{fill-rule:evenodd;clip-rule:evenodd;fill:#17667C;}
	.st1{fill-rule:evenodd;clip-rule:evenodd;fill:#FFFFFF;}
	.st2{fill:#FFFFFF;}
	.st3{fill-rule:evenodd;clip-rule:evenodd;fill:#458596;}
	.st4{fill:#458596;}
	.st5{fill:#17667C;}
	.st6{fill:#515151;}
	.st7{fill-rule:evenodd;clip-rule:evenodd;fill:#303132;}
	.st8{fill:#FEE9E9;stroke:#515151;stroke-width:2;stroke-dasharray:2;}
	.st9{fill:none;stroke:#515151;stroke-dasharray:2,1;}
	.st10{fill:#B4F0E7;}
	.st11{fill:#303132;}
	.st12{fill:#FEE9E9;}
	.st13{fill:none;stroke:#FFFFFF;stroke-width:2;}
	.st14{fill:#696A6A;}
	.st15{fill:#1F3F43;}
</style>
<g id="icon-select">
	<g id="Dropdown-Arrow_1_" transform="translate(7.985281, 5.500000) rotate(-45.000000) translate(-7.985281, -5.500000) ">
		<path class="st0" d="M71.9,75h7.8c0.3,0,0.5,0.2,0.5,0.5v1.7c0,0.3-0.2,0.5-0.5,0.5h-8.2h-1.7c-0.3,0-0.5-0.2-0.5-0.5v-10
			c0-0.3,0.2-0.5,0.5-0.5h1.7c0.3,0,0.5,0.2,0.5,0.5L71.9,75z"/>
	</g>
</g>
<g id="plus-white">
	<g id="Group">
		<path id="Path_2_" class="st1" d="M4.4,209c0,0.3,0.2,0.5,0.5,0.5h1.9c0.3,0,0.5,0.2,0.5,0.5v1.9c0,0.3,0.2,0.5,0.5,0.5
			s0.5-0.2,0.5-0.5V210c0-0.3,0.2-0.5,0.5-0.5H11c0.3,0,0.5-0.2,0.5-0.5s-0.2-0.5-0.5-0.5H9.1c-0.3,0-0.5-0.2-0.5-0.5v-2
			c0-0.3-0.2-0.5-0.5-0.5s-0.5,0.2-0.5,0.5v1.9c0,0.3-0.2,0.5-0.5,0.5H5C4.7,208.4,4.4,208.7,4.4,209z"/>
		<path id="Shape_1_" class="st2" d="M8,214.9c3.3,0,5.9-2.7,5.9-5.9s-2.7-5.9-5.9-5.9s-5.9,2.7-5.9,5.9S4.7,214.9,8,214.9z M8,216
			c-3.9,0-7-3.1-7-7s3.1-7,7-7s7,3.1,7,7S11.9,216,8,216z"/>
	</g>
</g>
<g id="delete-white" transform="translate(-2502.000000, -140.000000)">
	<g id="Group-12-Copy-3_1_" transform="translate(6.000000, 6.000000)">
		<g id="Line_3_">
			<path class="st2" d="M2498.8,446.2c-0.4-0.4-0.4-1,0-1.4l7.1-7.1c0.4-0.4,1-0.4,1.4,0s0.4,1,0,1.4l-7.1,7.1
				C2499.8,446.6,2499.2,446.6,2498.8,446.2z"/>
		</g>
		<g id="Line_2_">
			<path class="st2" d="M2505.8,446.2l-7.1-7.1c-0.4-0.4-0.4-1,0-1.4s1-0.4,1.4,0l7.1,7.1c0.4,0.4,0.4,1,0,1.4
				S2506.3,446.6,2505.8,446.2z"/>
		</g>
	</g>
</g>
<g id="camera-white">
	<g>
		<path id="Shape" class="st2" d="M16.1,406.6h-2.2c-0.1,0-0.2-0.1-0.2-0.1L13,405c-0.3-0.7-0.9-1-1.7-1H7.7c-0.7,0-1.4,0.4-1.7,1
			l-0.7,1.4c0,0.1-0.1,0.1-0.2,0.1H2.9c-1.6,0-2.9,1.3-2.9,2.9v8.9c0,1.6,1.3,2.9,2.9,2.9h13.3c1.6,0,2.9-1.3,2.9-2.9v-8.9
			C19,407.9,17.7,406.6,16.1,406.6z M17.9,418.3c0,1-0.8,1.7-1.7,1.7H2.9c-1,0-1.7-0.8-1.7-1.7v-8.8c0-1,0.8-1.7,1.7-1.7h2.2
			c0.5,0,1-0.3,1.2-0.8l0.7-1.4c0.1-0.2,0.4-0.4,0.6-0.4h3.7c0.3,0,0.5,0.2,0.6,0.4l0.7,1.4c0.3,0.5,0.7,0.8,1.3,0.8h2.2
			c1,0,1.7,0.8,1.7,1.7L17.9,418.3L17.9,418.3z"/>
		<path class="st2" d="M9.5,408.8c-2.6,0-4.7,2.2-4.7,4.8c0,2.6,2.1,4.8,4.7,4.8s4.8-2.2,4.8-4.8C14.3,410.9,12.1,408.8,9.5,408.8z
			 M9.5,417.3c-2,0-3.6-1.6-3.6-3.7c0-2,1.6-3.7,3.6-3.7s3.6,1.6,3.6,3.7C13.1,415.6,11.5,417.3,9.5,417.3z"/>
		<path id="Path" class="st1" d="M9.6,411.2c-0.3,0-0.6,0.3-0.6,0.6s0.3,0.6,0.6,0.6c0.6,0,1.2,0.5,1.2,1.2c0,0.3,0.3,0.6,0.6,0.6
			s0.6-0.3,0.6-0.6C11.9,412.2,10.8,411.2,9.6,411.2z"/>
	</g>
</g>
<g id="help-open">
	<g>
		<g id="Group-3">
			<g id="Clip-2">
			</g>
			<path id="Fill-1" class="st3" d="M98.3,516.7c-1.1,0.4-1.9,0.7-1.9,1.9v0.8h-2.9v-0.8c-0.1-2.3,0.7-3.6,2.8-4.4l1-0.4
				c1.1-0.4,1.8-1.3,1.8-2.4c0-1.6-1.1-2.5-2.6-2.5c-1.4,0-2.8,1.1-2.8,2.9h-3.1c0-3.8,2.7-6,6-6s5.7,2.1,5.7,5.5
				C102.2,514.1,100.5,516,98.3,516.7 M94.9,526c-1.2,0-2.2-0.9-2.2-2.1c0-1.2,1-2.1,2.2-2.1s2.2,0.9,2.2,2.1S96.1,526,94.9,526
				 M96,500.9c-8,0-14.5,6.5-14.5,14.5c0,8,6.5,14.5,14.5,14.5s14.5-6.5,14.5-14.5C110.5,507.4,104,500.9,96,500.9"/>
		</g>
	</g>
</g>
<g id="help-close" transform="translate(-2502.000000, -140.000000)">
	<g transform="translate(922.000000, 11.000000)">
		<g id="Path-2">
			<path class="st4" d="M1667.5,754.9c-0.4,0-0.7-0.1-1-0.4c-0.3-0.3-0.4-0.7-0.4-1c0-0.4,0.1-0.7,0.4-1l22-22
				c0.6-0.6,1.5-0.6,2.1,0c0.3,0.3,0.4,0.7,0.4,1c0,0.4-0.1,0.7-0.4,1l-22,22C1668.2,754.8,1667.9,754.9,1667.5,754.9z"/>
		</g>
		<g>
			<path class="st4" d="M1689.5,754.9c-0.4,0-0.7-0.1-1-0.4l-22-22c-0.6-0.6-0.6-1.5,0-2.1s1.5-0.6,2.1,0l22,22
				c0.6,0.6,0.6,1.5,0,2.1C1690.2,754.7,1689.8,754.9,1689.5,754.9z"/>
		</g>
	</g>
</g>
<g id="Download">
	<g id="Path_1_">
		<path class="st0" d="M12.3,713.3c0.4,0.4,1,0.4,1.4,0l4.7-4.7c0.8-0.8-0.4-1.9-1.2-1.1l-3.2,3.2c-0.2,0.2-0.3,0.1-0.3-0.1v-8.7
			c0-0.4-0.4-0.8-0.8-0.8c-0.5,0-0.8,0.4-0.8,0.8v8.7c0,0.2-0.1,0.3-0.3,0.1l-3.2-3.2c-0.8-0.8-1.9,0.4-1.2,1.1L12.3,713.3z"/>
		<path class="st0" d="M20.4,717c0,0.2-0.2,0.4-0.4,0.4H6.1c-0.2,0-0.4-0.2-0.4-0.4v-2.8c0-0.4-0.4-0.8-0.8-0.8
			c-0.5,0-0.8,0.4-0.8,0.8v3.6c0,0.7,0.6,1.2,1.2,1.2h15.5c0.7,0,1.2-0.5,1.2-1.2v-3.6c0-0.4-0.4-0.8-0.8-0.8
			c-0.5,0-0.8,0.4-0.8,0.8L20.4,717L20.4,717z"/>
	</g>
</g>
<g id="Sorter">
	<g transform="translate(-2.000000, 0.000000)">
		<g id="Combined-Shape_1_">
			<path class="st5" d="M108,810h7l-3.2,6L108,810z M115,807h-7l3.2-6L115,807z"/>
		</g>
	</g>
</g>
<g id="active-up_1_">
	<g id="Saksbehandlare-egenkontroller-v3" transform="translate(-685.000000, -553.000000)">
		<g id="Table-954" transform="translate(373.000000, 521.000000)">
			<g id="Table-head-text" transform="translate(30.000000, 27.000000)">
				<g id="row">
					
						<g transform="translate(287.000000, 9.500000) rotate(-180.000000) translate(-287.000000, -9.500000) translate(282.000000, 5.000000)">
						<g id="Combined-Shape">
							<polygon class="st5" points="-105,-902 -99.6,-893 -95,-902 							"/>
						</g>
					</g>
				</g>
			</g>
		</g>
	</g>
</g>
<g id="sorter-down_1_">
	<g id="Saksbehandlare-egenkontroller-v3_1_" transform="translate(-685.000000, -553.000000)">
		<g id="Table-954_1_" transform="translate(373.000000, 521.000000)">
			<g id="Table-head-text_1_" transform="translate(30.000000, 27.000000)">
				<g id="row_1_">
					
						<g transform="translate(287.000000, 9.500000) rotate(-180.000000) translate(-287.000000, -9.500000) translate(282.000000, 5.000000)">
						<g id="Combined-Shape_2_">
							<polygon class="st5" points="-95,-994 -100.4,-1003 -105,-994 							"/>
						</g>
					</g>
				</g>
			</g>
		</g>
	</g>
</g>
<g id="back-arrow">
	<g transform="translate(267.000000, 10.000000)">
		<path class="st5" d="M-259.8,1100.8c0,0.1,0,0.3-0.1,0.3c-0.1,0.3-0.3,0.4-0.5,0.3l-5.1-5.1c-0.2-0.1-0.2-0.3-0.2-0.6
			c0-0.3,0.1-0.4,0.2-0.6l5.1-6.5c0.2-0.3,0.4-0.1,0.5,0.1s0.1,0.7-0.1,1l-4.5,5.7l4.6,4.6C-259.8,1100.2-259.8,1100.5-259.8,1100.8
			z"/>
		<path class="st5" d="M-242.7,1094.9c0,0.4-0.3,0.6-0.9,0.6l-20.2,0.2c-0.6,0-0.9-0.2-0.9-0.6s0.3-0.6,0.9-0.6l20.2-0.2
			C-243.1,1094.3-242.7,1094.5-242.7,1094.9z"/>
	</g>
</g>
<g id="UI">
	<g id="Group-Copy-3">
		<path id="Shape_2_" class="st6" d="M11,1219c-5.5,0-10-4.5-10-10c0-0.3,0.3-0.6,0.6-0.6s0.6,0.3,0.6,0.6c0,4.8,3.9,8.7,8.7,8.7
			s8.7-3.9,8.7-8.7c0-4.6-3.6-8.4-8.1-8.7v2.3c0,0.3-0.3,0.6-0.6,0.6s-0.6-0.3-0.6-0.6v-2.9c0-0.3,0.3-0.6,0.6-0.6
			c5.5,0,10,4.5,10,10C21,1214.5,16.5,1219,11,1219z"/>
		<path class="st6" d="M12.5,1209.6L12.5,1209.6l3.5-4.7c0.1-0.1,0-0.2,0-0.3s-0.2-0.1-0.3,0l-4.6,3.6H11c-0.5,0-1,0.2-1.3,0.7
			s-0.3,1.1,0,1.5c0.6,0.8,1.7,0.9,2.4,0.2C12.5,1210.3,12.6,1209.9,12.5,1209.6z"/>
	</g>
</g>
<g id="icon-delete">
	<g id="Group-10" transform="translate(0.000000, -1.000000)">
		<path id="Fill-1_1_" class="st7" d="M11.5,1306.7l-0.3,6.2c0,0.3,0.2,0.6,0.6,0.6c0.3,0,0.6-0.2,0.6-0.6l0.3-6.2
			c0-0.3-0.2-0.6-0.6-0.6C11.8,1306.1,11.5,1306.4,11.5,1306.7"/>
		<g id="Group-5" transform="translate(0.000000, 0.615400)">
			<g id="Clip-4">
			</g>
			<path id="Fill-3" class="st7" d="M14,1314.8H4l-0.6-11.7h2.5h6.2h2.5L14,1314.8z M7.6,1300.6h2.8l0.2,1.2H7.4L7.6,1300.6z
				 M16.4,1301.8h-1.8h-2.7l-0.2-1.4c-0.1-0.6-0.6-1-1.2-1H7.6c-0.6,0-1.1,0.4-1.2,1l-0.2,1.4H3.5H1.6c-0.3,0-0.6,0.3-0.6,0.6
				c0,0.3,0.3,0.6,0.6,0.6h0.6c0,0,0,0,0,0.1l0.6,11.7c0,0.7,0.6,1.2,1.2,1.2h10c0.7,0,1.2-0.5,1.2-1.2l0.6-11.7c0,0,0,0,0-0.1h0.6
				c0.3,0,0.6-0.3,0.6-0.6C17,1302.1,16.7,1301.8,16.4,1301.8z"/>
		</g>
		<path id="Fill-6" class="st7" d="M5.9,1306.2c-0.3,0-0.6,0.3-0.6,0.6l0.3,6.2c0,0.3,0.3,0.6,0.6,0.6c0.3,0,0.6-0.3,0.6-0.6
			l-0.3-6.2C6.5,1306.4,6.2,1306.1,5.9,1306.2"/>
		<path id="Fill-8" class="st7" d="M9,1306.2c-0.3,0-0.6,0.3-0.6,0.6v6.2c0,0.3,0.3,0.6,0.6,0.6s0.6-0.3,0.6-0.6v-6.2
			C9.6,1306.4,9.3,1306.2,9,1306.2"/>
	</g>
</g>
<g id="icon-notDone">
	<g>
		<g id="Rectangle">
			<path class="st8" d="M23,1399L23,1399c12.7,0,23,10.3,23,23l0,0c0,12.7-10.3,23-23,23l0,0c-12.7,0-23-10.3-23-23l0,0
				C0,1409.3,10.3,1399,23,1399z"/>
		</g>
		<g id="Mask">
			<path class="st9" d="M35.1,1414c0-1.6-1.3-2.9-2.8-2.9c-0.9,0-1.7,0.4-2.2,1.1L20,1425.1l-4.3-4.9c-0.5-0.6-1.2-0.9-2.1-0.9
				c-1.5,0-2.8,1.3-2.8,2.9c0,0.8,0.3,1.5,0.7,2l0,0l6.5,7.4c0.5,0.6,1.2,0.9,2.1,0.9s1.7-0.4,2.2-1.1l12.1-15.5l0,0
				C34.9,1415.4,35.1,1414.7,35.1,1414z"/>
		</g>
	</g>
</g>
<g id="icon-done">
	<g>
		<path id="Rectangle_1_" class="st10" d="M23,1499L23,1499c12.7,0,23,10.3,23,23l0,0c0,12.7-10.3,23-23,23l0,0
			c-12.7,0-23-10.3-23-23l0,0C0,1509.3,10.3,1499,23,1499z"/>
		<g id="Mask_1_">
			<path class="st11" d="M35.1,1514c0-1.6-1.3-2.9-2.8-2.9c-0.9,0-1.7,0.4-2.2,1.1L20,1525.1l-4.3-4.9c-0.5-0.6-1.2-0.9-2.1-0.9
				c-1.5,0-2.8,1.3-2.8,2.9c0,0.8,0.3,1.5,0.7,2l0,0l6.5,7.4c0.5,0.6,1.2,0.9,2.1,0.9s1.7-0.4,2.2-1.1l12.1-15.5l0,0
				C34.9,1515.4,35.1,1514.7,35.1,1514z"/>
		</g>
	</g>
</g>
<g id="icon-innsendt">
	<g id="Group-3_1_" transform="translate(14.000000, 777.000000)">
		<circle id="Oval" class="st10" cx="8.5" cy="843.5" r="21.5"/>
		<g transform="translate(12.000000, 12.000000)">
			<g id="Group-Copy-3_1_">
				<path id="Shape_3_" class="st6" d="M-3,842c-5.5,0-10-4.5-10-10c0-0.3,0.3-0.6,0.6-0.6s0.6,0.3,0.6,0.6c0,4.8,3.9,8.7,8.7,8.7
					s8.7-3.9,8.7-8.7c0-4.6-3.6-8.4-8.1-8.7v2.3c0,0.3-0.3,0.6-0.6,0.6s-0.6-0.3-0.6-0.6v-2.9c0-0.3,0.3-0.6,0.6-0.6
					c5.5,0,10,4.5,10,10S2.5,842-3,842z"/>
				<path class="st6" d="M-1.5,832.6L-1.5,832.6l3.5-4.7c0.1-0.1,0-0.2,0-0.3c-0.1-0.1-0.2-0.1-0.3,0l-4.6,3.6H-3
					c-0.5,0-1,0.2-1.3,0.7s-0.3,1.1,0,1.5c0.6,0.8,1.7,0.9,2.4,0.2C-1.5,833.3-1.4,832.9-1.5,832.6z"/>
			</g>
		</g>
	</g>
</g>
<g id="icon-frist_1_">
	<g id="Group-2" transform="translate(14.000000, 829.000000)">
		<circle id="Oval-Copy" class="st12" cx="8.5" cy="890.5" r="21.5"/>
		<g transform="translate(12.000000, 12.000000)">
			<path id="Shape_4_" class="st6" d="M1.7,874.5v-1.8h1c0.3,0,0.5-0.2,0.5-0.5v-2.6c0-0.3-0.2-0.5-0.5-0.5H-8.9
				c-0.3,0-0.5,0.2-0.5,0.5v2.6c0,0.3,0.2,0.5,0.5,0.5h1v1.8c0,1.2,0.6,2.3,1.6,3L-4,879l-2.3,1.5c-1,0.7-1.6,1.8-1.6,3v1.8h-1
				c-0.3,0-0.5,0.2-0.5,0.5v2.6c0,0.3,0.2,0.5,0.5,0.5H2.7c0.3,0,0.5-0.2,0.5-0.5v-2.6c0-0.3-0.2-0.5-0.5-0.5h-1v-1.8
				c0-1.2-0.6-2.3-1.6-3l-2.3-1.5l2.3-1.5C1.2,876.8,1.7,875.7,1.7,874.5z M-8.4,870H2.2v1.6H-8.4V870z M2.2,888H-8.4v-1.6H2.2V888z
				 M-0.4,881.4c0.7,0.5,1.2,1.3,1.2,2.2v1.8h-7.7v-1.8c0-0.9,0.4-1.7,1.2-2.2l2.7-1.8L-0.4,881.4z M-0.4,876.6l-2.7,1.8l-2.7-1.8
				c-0.7-0.5-1.2-1.3-1.2-2.2v-1.8h7.7v1.8C0.8,875.3,0.3,876.2-0.4,876.6z"/>
		</g>
	</g>
</g>
<g id="icon-document">
	<g transform="translate(0.639287, 0.000000)">
		<g id="Shape_5_">
			<path class="st4" d="M11.4,1813H1.3c-0.5,0-0.9-0.4-0.9-0.9v-13.3c0-0.5,0.4-0.9,0.9-0.9H8c0.1,0,0.2,0,0.2,0.1l0,0l4,3.8
				c0.1,0.1,0.1,0.1,0.1,0.2v10C12.4,1812.6,11.9,1813,11.4,1813z"/>
		</g>
		<polyline id="Path-4" class="st13" points="7,1799.3 7,1803.2 11,1803.2 		"/>
	</g>
</g>
<g id="Symbols">
	<g id="Mask_2_">
		<path class="st14" d="M21,1900.4c0-1.3-1-2.4-2.3-2.4c-0.7,0-1.4,0.3-1.8,0.9l-8.3,10.7l-3.6-4c-0.4-0.5-1-0.8-1.7-0.8
			c-1.3,0-2.3,1.1-2.3,2.4c0,0.6,0.2,1.2,0.6,1.6l5.4,6.1c0.4,0.5,1,0.8,1.7,0.8s1.4-0.3,1.8-0.9l10-12.8
			C20.8,1901.5,21,1901,21,1900.4z"/>
	</g>
</g>
<g id="Error-large">
	<path id="XMLID_459_" class="st6" d="M27.2,2019.4l-12-20.2c-0.2-0.4-0.6-0.7-1.1-0.7c-0.4,0-0.8,0.2-1.1,0.7l-11.7,20.2
		c-0.2,0.4-0.3,0.9,0,1.3c0.2,0.4,0.6,0.6,1.1,0.6h23.8c0.5,0,0.9-0.2,1.1-0.6S27.4,2019.9,27.2,2019.4z M25.1,2019.8H3.3
		c-0.2,0-0.3-0.2-0.2-0.3l10.8-18.6c0.1-0.2,0.3-0.2,0.4,0l11,18.6C25.4,2019.6,25.4,2019.8,25.1,2019.8z"/>
	<path id="XMLID_458_" class="st6" d="M14.4,2015.1c0.5,0,0.9-0.4,0.9-0.9l0.3-7.6c0-0.5-0.4-0.9-0.9-0.9h-0.9
		c-0.5,0-0.9,0.4-0.9,0.9l0.5,7.6C13.5,2014.6,13.9,2015.1,14.4,2015.1z"/>
	<path id="XMLID_457_" class="st6" d="M14.7,2015.9h-0.8c-0.5,0-0.9,0.4-0.9,0.9v0.8c0,0.5,0.4,0.9,0.9,0.9h0.8
		c0.5,0,0.9-0.4,0.9-0.9v-0.8C15.6,2016.4,15.2,2015.9,14.7,2015.9z"/>
</g>
<g id="Symbols_1_">
	<g id="Toppmeny-2" transform="translate(-1310.000000, -30.000000)">
		<g id="Path-3">
			<polygon class="st15" points="1421.3,2137.8 1413.7,2130.9 1415.8,2128.7 1421.3,2133.7 1426.7,2128.7 1428.8,2130.9 			"/>
		</g>
	</g>
</g>
</svg>
