<?xml version="1.0" encoding="utf-8"?>
<!-- Generator: Adobe Illustrator 23.0.1, SVG Export Plug-In . SVG Version: 6.00 Build 0)  -->
<svg version="1.1" id="Layer_1" xmlns="http://www.w3.org/2000/svg" xmlns:xlink="http://www.w3.org/1999/xlink" x="0px" y="0px"
	 width="118.8px" height="4000px" viewBox="0 0 118.8 4000" style="enable-background:new 0 0 118.8 4000;" xml:space="preserve">
<style type="text/css">
	.st0{fill:#FFFFFF;}
	.st1{fill:none;stroke:#127DAC;}
	.st2{fill:#7FFFC7;}
</style>
<g id="mobile-meny-white" transform="translate(-329.000000, -13.000000)">
	<g id="Group-2" transform="translate(313.000000, 0.000000)">
		<circle id="Oval-3" class="st0" cx="30" cy="27" r="13"/>
		<path id="Path-2-Copy-2" class="st1" d="M22,23.5h16"/>
		<path id="Path-2-Copy-3" class="st1" d="M22,27.5h16"/>
		<path id="Path-2-Copy-4" class="st1" d="M22,31.5h16"/>
	</g>
</g>
<g id="mobile-meny-green_2_" transform="translate(-329.000000, -13.000000)">
	<g id="Group-2_1_" transform="translate(313.000000, 0.000000)">
		<circle id="Oval-3_1_" class="st2" cx="30" cy="127" r="13"/>
		<path id="Path-2-Copy-2_1_" class="st1" d="M22,123.5h16"/>
		<path id="Path-2-Copy-3_1_" class="st1" d="M22,127.5h16"/>
		<path id="Path-2-Copy-4_1_" class="st1" d="M22,131.5h16"/>
	</g>
</g>
<g id="plus-white" transform="translate(-2502.000000, -140.000000)">
	<g id="Group-12-Copy-3" transform="translate(6.000000, 6.000000)">
		<g id="Line">
			<path class="st0" d="M2503,348c-0.6,0-1-0.4-1-1v-10c0-0.6,0.4-1,1-1s1,0.4,1,1v10C2504,347.5,2503.6,348,2503,348z"/>
		</g>
		<g id="Line_1_">
			<path class="st0" d="M2508,343h-10c-0.6,0-1-0.4-1-1s0.4-1,1-1h10c0.6,0,1,0.4,1,1S2508.6,343,2508,343z"/>
		</g>
	</g>
</g>
<g id="delete-white" transform="translate(-2502.000000, -140.000000)">
	<g id="Group-12-Copy-3_1_" transform="translate(6.000000, 6.000000)">
		<g id="Line_3_">
			<path class="st0" d="M2498.8,446.2c-0.4-0.4-0.4-1,0-1.4l7.1-7.1c0.4-0.4,1-0.4,1.4,0s0.4,1,0,1.4l-7.1,7.1
				C2499.8,446.6,2499.2,446.6,2498.8,446.2z"/>
		</g>
		<g id="Line_2_">
			<path class="st0" d="M2505.8,446.2l-7.1-7.1c-0.4-0.4-0.4-1,0-1.4s1-0.4,1.4,0l7.1,7.1c0.4,0.4,0.4,1,0,1.4
				C2506.8,446.6,2506.3,446.6,2505.8,446.2z"/>
		</g>
	</g>
</g>
</svg>
