<?xml version="1.0" encoding="utf-8"?>
<!-- Generator: Adobe Illustrator 23.0.1, SVG Export Plug-In . SVG Version: 6.00 Build 0)  -->
<svg version="1.1" id="Lager_1" xmlns="http://www.w3.org/2000/svg" xmlns:xlink="http://www.w3.org/1999/xlink" x="0px" y="0px"
	  viewBox="0 0 247.5 61" style="enable-background:new 0 0 247.5 61;" xml:space="preserve">
<style type="text/css">
	.st0{fill-rule:evenodd;clip-rule:evenodd;fill:#335D61;}
</style>
<g id="difi-logo" transform="translate(-3.000000, -2.000000)">
	<path d="M75.4,45v-7h-1.3v3.8c0,1.5-1.2,2.1-2.2,2.1s-1.7-0.7-1.7-1.9v-4h-1.3v4c0,2,1.1,3.1,2.8,3.1c0.8,0,1.9-0.4,2.3-1.2V45
		H75.4z"/>
	<polygon points="26.9,48.4 28.2,48.4 32.6,38 31.2,38 29,43.2 26.9,38 25.5,38 28.3,44.8 	"/>
	<path d="M24.8,43c0-0.8-0.4-1.7-1.8-2l-1-0.3c-0.5-0.1-0.9-0.4-0.9-0.8c0-0.5,0.5-0.9,1.1-0.9s1.1,0.4,1.1,0.9h1.3
		c0-1.4-1.2-2-2.4-2c-1.4,0-2.4,0.9-2.4,2s0.7,1.7,1.8,2l1,0.2c0.6,0.1,1,0.4,1,0.9c0,0.6-0.5,1-1.4,1s-1.4-0.5-1.4-1.1h-1.3
		c0.1,1.4,1.4,2.2,2.6,2.2C23.6,45.2,24.8,44.4,24.8,43z"/>
	<rect x="16.5" y="34.2" width="1.3" height="10.8"/>
	<path d="M64.1,39.3l0.2-1.2c-0.2-0.1-0.7-0.3-1.2-0.3c-0.9,0-1.6,0.5-2,1.7V38h-1.3v7h1.3v-2.6c0-1.8,0.6-3.3,2-3.3
		C63.3,39.1,63.7,39.2,64.1,39.3z"/>
	<path d="M13.5,36.3c0.5,0,0.9-0.4,0.9-0.9s-0.4-0.9-0.9-0.9s-0.9,0.4-0.9,0.9S13.1,36.3,13.5,36.3z"/>
	<polygon points="3.8,35.9 7,35.9 7,45 8.3,45 8.3,35.9 11.5,35.9 11.5,34.7 3.8,34.7 	"/>
	<path d="M48.2,37.1c0-0.9,0.3-1.7,1.6-1.7h0.5v-1.2h-0.8c-1.9,0-2.6,1.3-2.6,3.1V38h-1.3v1.1h1.3V45h1.3v-5.9h1.6V38h-1.6V37.1z"/>
	<rect x="12.9" y="38" width="1.3" height="7"/>
	<path d="M86.9,36.3c0.5,0,0.9-0.4,0.9-0.9s-0.4-0.9-0.9-0.9S86,34.9,86,35.4S86.4,36.3,86.9,36.3z"/>
	<path d="M114.2,41l-1-0.3c-0.5-0.1-0.9-0.4-0.9-0.8c0-0.5,0.5-0.9,1.1-0.9s1.1,0.4,1.1,0.9h1.3c0-1.4-1.2-2-2.4-2
		c-1.4,0-2.4,0.9-2.4,2s0.7,1.7,1.8,2l1,0.2c0.6,0.1,1,0.4,1,0.9c0,0.6-0.5,1-1.4,1s-1.4-0.5-1.4-1.1h-1.2c0.1,1.4,1.4,2.2,2.6,2.2
		c1.5,0,2.7-0.8,2.7-2.1C116.1,42.3,115.7,41.4,114.2,41z"/>
	<path d="M106.9,42.4c0-1.8,0.6-3.3,2-3.3c0.3,0,0.6,0.1,1,0.2l0.2-1.2c-0.2-0.1-0.7-0.3-1.2-0.3c-0.9,0-1.6,0.5-2,1.7V38h-1.3v7
		h1.3V42.4z"/>
	<path d="M121,37.8c-2,0-3.6,1.4-3.6,3.6c0,2.2,1.6,3.7,3.6,3.7c1.3,0,2.6-0.6,3.2-1.8l-1.1-0.5c-0.4,0.7-1.2,1.1-2,1.1
		c-1.2,0-2.1-0.6-2.3-1.9h5.7c0-0.2,0-0.4,0-0.6C124.4,39.3,122.9,37.8,121,37.8z M118.7,40.9c0.2-1.3,1-1.9,2.2-1.9s2,0.7,2.2,1.9
		H118.7z"/>
	<rect x="126.2" y="34.2" width="1.3" height="10.8"/>
	<rect x="129.8" y="34.2" width="1.3" height="10.8"/>
	<path d="M35.2,41.2c0-1.5,1.2-2.1,2.1-2.1c1,0,1.7,0.7,1.7,1.9v4h1.3v-4c0-2-1.1-3.1-2.8-3.1c-0.8,0-1.9,0.4-2.3,1.2V38h-1.3v7h1.3
		V41.2z"/>
	<path d="M84.1,45v-4c0-2-1.1-3.1-2.8-3.1c-0.8,0-1.9,0.4-2.3,1.2V38h-1.3v7H79v-3.8c0-1.5,1.2-2.1,2.1-2.1c1,0,1.7,0.7,1.7,1.9v4
		C82.8,45,84.1,45,84.1,45z"/>
	<polygon points="94.6,38 92.5,43.3 90.3,38 88.9,38 91.8,45 93.1,45 96,38 	"/>
	<path d="M54.3,45.2c2,0,3.7-1.5,3.7-3.7s-1.7-3.6-3.7-3.6s-3.7,1.4-3.7,3.6C50.6,43.7,52.3,45.2,54.3,45.2z M54.3,39.1
		c1.3,0,2.4,1,2.4,2.4c0,1.5-1.1,2.4-2.4,2.4c-1.3,0-2.3-1-2.3-2.4C52,40,53,39.1,54.3,39.1z"/>
	<rect x="86.3" y="38" width="1.3" height="7"/>
	<path d="M103.5,43.3l-1.1-0.5c-0.4,0.7-1.2,1.1-2,1.1c-1.2,0-2.1-0.6-2.3-1.9h5.7c0-0.2,0-0.4,0-0.6c0-2.2-1.5-3.6-3.5-3.6
		s-3.6,1.4-3.6,3.6c0,2.2,1.6,3.7,3.6,3.7C101.7,45.2,102.9,44.5,103.5,43.3z M100.3,39.1c1.2,0,2,0.7,2.2,1.9h-4.4
		C98.3,39.7,99.1,39.1,100.3,39.1z"/>
	<polygon points="15.1,49.3 13.8,49.3 13.8,52 12.5,52 12.5,53.1 13.8,53.1 13.8,59 15.1,59 15.1,53.1 16.6,53.1 16.6,52 15.1,52 	
		"/>
	<path d="M9.7,55.8c0,1.5-1.2,2.1-2.2,2.1S5.8,57.2,5.8,56v-4H4.5v4c0,2,1.1,3.1,2.8,3.1c0.8,0,1.9-0.4,2.3-1.2V59h1.3v-7H9.6
		L9.7,55.8L9.7,55.8z"/>
	<rect x="50.5" y="52" width="1.3" height="7"/>
	<path d="M96.8,48.5c-0.5,0-0.9,0.4-0.9,0.9s0.4,0.9,0.9,0.9s0.9-0.4,0.9-0.9S97.3,48.5,96.8,48.5z"/>
	<path d="M81.2,53.1c-0.5-0.8-1.5-1.2-2.5-1.2c-1.9,0-3.5,1.4-3.5,3.6c0,2.2,1.6,3.7,3.5,3.7c1,0,2-0.5,2.5-1.3V59h1.3v-7h-1.3V53.1
		z M78.8,57.9c-1.3,0-2.3-1-2.3-2.4s1-2.4,2.3-2.4c1.2,0,2.4,0.9,2.4,2.4S80.1,57.9,78.8,57.9z"/>
	<polygon points="87.4,57.3 85.3,52 83.9,52 86.8,59 88,59 91,52 89.6,52 	"/>
	<rect x="96.1" y="52" width="1.3" height="7"/>
	<polygon points="105.2,52 103.4,52 101,54.5 101,48.2 99.7,48.2 99.7,59 101,59 101,55.6 104.2,59 106,59 102.2,55 	"/>
	<polygon points="108.8,49.3 107.5,49.3 107.5,52 106.3,52 106.3,53.1 107.5,53.1 107.5,59 108.8,59 108.8,53.1 110.3,53.1 
		110.3,52 108.8,52 	"/>
	<path d="M57.7,51.8c-0.8,0-1.9,0.4-2.3,1.2v-1h-1.3v7h1.3v-3.8c0-1.5,1.2-2.1,2.1-2.1s1.7,0.7,1.7,1.9v4h1.3v-4
		C60.6,53,59.5,51.8,57.7,51.8z"/>
	<path d="M32.9,53.6V52h-1.4v7h1.3v-2.6c0-1.8,0.6-3.3,2-3.3c0.3,0,0.6,0.1,1,0.2l0.2-1.2c-0.2-0.1-0.7-0.3-1.2-0.3
		C33.9,51.8,33.2,52.4,32.9,53.6z"/>
	<path d="M26,51.8c-2,0-3.7,1.4-3.7,3.6c0,2.2,1.7,3.7,3.7,3.7s3.7-1.5,3.7-3.7C29.7,53.3,28,51.8,26,51.8z M26,57.9
		c-1.3,0-2.3-1-2.3-2.4s1.1-2.4,2.3-2.4c1.3,0,2.4,1,2.4,2.4S27.3,57.9,26,57.9z"/>
	<path d="M68.3,53.1c-0.5-0.8-1.5-1.2-2.5-1.2c-1.9,0-3.5,1.4-3.5,3.6c0,2.2,1.6,3.7,3.5,3.7c1,0,2-0.5,2.5-1.3V58
		c0,2.4-1,3.2-2.5,3.2c-0.8,0-1.6-0.4-2-1.2l-1.1,0.6c0.7,1.2,1.9,1.9,3.2,1.9c2.3,0,3.8-1.2,3.8-4.6V52h-1.3L68.3,53.1L68.3,53.1z
		 M65.9,57.9c-1.3,0-2.3-1-2.3-2.4s1-2.4,2.3-2.4c1.2,0,2.4,0.9,2.4,2.4S67.1,57.9,65.9,57.9z"/>
	<path d="M45.7,51.8c-0.7,0-1.8,0.2-2.4,1.5c-0.4-0.9-1.3-1.5-2.3-1.5s-1.9,0.5-2.2,1.2v-1h-1.3v7h1.3v-3.8c0-1.5,1-2.1,2-2.1
		c0.9,0,1.6,0.7,1.6,1.9v4h1.3v-3.6v0.1c-0.1-1.3,0.6-2.4,1.9-2.4c1,0,1.7,0.8,1.7,1.9v4h1.3v-4C48.4,53,47.4,51.8,45.7,51.8z"/>
	<path d="M51.2,48.5c-0.5,0-0.9,0.4-0.9,0.9s0.4,0.9,0.9,0.9s0.9-0.4,0.9-0.9S51.7,48.5,51.2,48.5z"/>
	<path d="M18.7,51.3V52h-1.4v1.1h1.4V59H20v-5.9h1.6V52H20v-0.9c0-0.9,0.3-1.7,1.6-1.7h0.5v-1.2h-0.8C19.4,48.2,18.7,49.4,18.7,51.3
		z"/>
	<path class="st0" d="M7.8,20.1h7.5V22H5.7V6.2H15v1.9H7.7v5.2H14v2H7.7v4.8C7.7,20.1,7.8,20.1,7.8,20.1z M26.4,11.3h2v9.1
		c0,5.1-2.3,7-5.8,7c-2,0-3.8-1-4.8-2.9l1.7-0.9c0.7,1.2,1.9,1.9,3.1,1.9c2.4,0,3.8-1.3,3.8-5v-0.2c-0.7,1.2-2.3,1.9-3.8,1.9
		c-2.9,0-5.4-2.2-5.4-5.6s2.4-5.6,5.4-5.6c1.6,0,3.1,0.7,3.8,1.9V11.3z M22.8,20.3c1.9,0,3.7-1.4,3.7-3.7s-1.9-3.7-3.7-3.7
		c-2,0-3.5,1.5-3.5,3.7C19.3,18.7,20.8,20.3,22.8,20.3z M42,16.6c0,0.3,0,0.6,0,0.9h-8.7c0.3,1.9,1.7,2.9,3.5,2.9
		c1.3,0,2.5-0.6,3.1-1.6l1.7,0.7c-0.9,1.9-2.9,2.8-4.9,2.8c-3.1,0-5.5-2.2-5.5-5.6s2.5-5.6,5.5-5.6C39.8,11,42,13.2,42,16.6z
		 M33.3,15.8h6.8c-0.3-1.8-1.6-2.9-3.3-2.9C34.9,12.9,33.6,13.8,33.3,15.8z M50.3,11c2.7,0,4.3,1.7,4.3,4.8V22h-2v-6.1
		c0-1.8-1.1-2.9-2.6-2.9s-3.3,0.9-3.3,3.2V22h-2V11.3h2v1.6C47.4,11.6,49.2,11,50.3,11z M67.6,22h-2.7L60,16.8V22h-2V5.4h2v9.7
		l3.7-3.8h2.8l-4.6,4.6L67.6,22z M73.4,22.2c-3.1,0-5.6-2.2-5.6-5.6s2.6-5.6,5.6-5.6s5.6,2.2,5.6,5.6S76.5,22.2,73.4,22.2z
		 M73.4,20.3c2,0,3.6-1.5,3.6-3.7s-1.7-3.7-3.6-3.7c-2,0-3.6,1.5-3.6,3.7S71.5,20.3,73.4,20.3z M87.4,11c2.7,0,4.3,1.7,4.3,4.8V22
		h-2v-6.1c0-1.8-1.1-2.9-2.6-2.9s-3.3,0.9-3.3,3.2V22h-2V11.3h2v1.6C84.5,11.6,86.2,11,87.4,11z M100.1,11.3V13h-2.3v9h-2v-9h-1.9
		v-1.7h1.9V7.2h2v4.1C97.8,11.3,100.1,11.3,100.1,11.3z M107.3,11c0.8,0,1.5,0.2,1.9,0.4l-0.3,1.9c-0.6-0.3-1.2-0.4-1.6-0.4
		c-2.1,0-3,2.3-3,5.1v4h-2V11.3h2v2.4C104.9,11.8,105.9,11,107.3,11z M115.8,22.2c-3.1,0-5.6-2.2-5.6-5.6s2.6-5.6,5.6-5.6
		s5.6,2.2,5.6,5.6S118.8,22.2,115.8,22.2z M115.8,20.3c2,0,3.6-1.5,3.6-3.7s-1.7-3.7-3.6-3.7c-2,0-3.6,1.5-3.6,3.7
		S113.8,20.3,115.8,20.3z M124.2,22V5.4h2V22H124.2z M129.7,22V5.4h2V22H129.7z M149.4,11.3h2V22h-2v-1.7c-0.7,1.2-2.3,1.9-3.8,1.9
		c-2.9,0-5.4-2.2-5.4-5.6s2.4-5.6,5.4-5.6c1.6,0,3.1,0.6,3.8,1.9V11.3z M145.8,20.3c1.9,0,3.7-1.4,3.7-3.7s-1.9-3.7-3.7-3.7
		c-2,0-3.5,1.5-3.5,3.7C142.3,18.7,143.8,20.3,145.8,20.3z M162.7,11.3h2V22h-2v-1.7c-0.6,1.3-2.4,1.9-3.6,1.9
		c-2.7,0-4.3-1.7-4.3-4.8v-6.2h2v6.1c0,1.8,1.1,2.9,2.6,2.9s3.3-0.9,3.3-3.2V11.3z M173.3,11.3V13H171v9h-2v-9h-1.9v-1.7h1.9V7.2h2
		v4.1C171,11.3,173.3,11.3,173.3,11.3z M180.2,22.2c-3.1,0-5.6-2.2-5.6-5.6s2.6-5.6,5.6-5.6s5.6,2.2,5.6,5.6S183.2,22.2,180.2,22.2z
		 M180.2,20.3c2,0,3.6-1.5,3.6-3.7s-1.7-3.7-3.6-3.7c-2,0-3.6,1.5-3.6,3.7S178.2,20.3,180.2,20.3z M201.3,11c2.7,0,4.2,1.7,4.2,4.8
		V22h-2v-6.1c0-1.8-1-2.9-2.6-2.9c-1.9,0-3.1,1.6-2.9,3.7v-0.1V22h-2v-6.1c0-1.8-1-2.9-2.4-2.9c-1.5,0-3,0.9-3,3.2V22h-2V11.3h2v1.6
		c0.6-1.1,1.9-1.9,3.5-1.9s2.9,0.8,3.5,2.2C198.6,11.4,200.3,11,201.3,11z M217.3,11.3h2V22h-2v-1.7c-0.7,1.2-2.3,1.9-3.8,1.9
		c-2.9,0-5.4-2.2-5.4-5.6s2.4-5.6,5.4-5.6c1.6,0,3.1,0.6,3.8,1.9V11.3z M213.7,20.3c1.9,0,3.7-1.4,3.7-3.7s-1.9-3.7-3.7-3.7
		c-2,0-3.5,1.5-3.5,3.7C210.2,18.7,211.7,20.3,213.7,20.3z M228,11.3V13h-2.3v9h-2v-9h-1.9v-1.7h1.9V7.2h2v4.1
		C225.7,11.3,228,11.3,228,11.3z M240.1,16.6c0,0.3,0,0.6,0,0.9h-8.7c0.3,1.9,1.7,2.9,3.5,2.9c1.3,0,2.5-0.6,3.1-1.6l1.7,0.7
		c-0.9,1.9-2.9,2.8-4.9,2.8c-3.1,0-5.5-2.2-5.5-5.6s2.5-5.6,5.5-5.6C237.8,11,240.1,13.2,240.1,16.6z M231.3,15.8h6.8
		c-0.3-1.8-1.6-2.9-3.3-2.9C232.9,12.9,231.7,13.8,231.3,15.8z M247.9,11c0.8,0,1.5,0.2,1.9,0.4l-0.3,1.9c-0.6-0.3-1.2-0.4-1.6-0.4
		c-2.1,0-3,2.3-3,5.1v4h-2V11.3h2v2.4C245.4,11.8,246.4,11,247.9,11z"/>
</g>
</svg>
