<?xml version="1.0" encoding="utf-8"?>
<!-- Generator: Adobe Illustrator 23.0.1, SVG Export Plug-In . SVG Version: 6.00 Build 0)  -->
<svg version="1.1" id="Lager_1" width="374px" height="60px" xmlns="http://www.w3.org/2000/svg" xmlns:xlink="http://www.w3.org/1999/xlink" x="0px" y="0px"
	 viewBox="0 0 375 61" style="enable-background:new 0 0 375 61;" xml:space="preserve">
  
<style type="text/css">
	.st0{fill:#424242;}
	.st1{fill-rule:evenodd;clip-rule:evenodd;fill:#335D61;}
	.st2{fill-rule:evenodd;clip-rule:evenodd;fill:#47BFEB;}
	.st3{fill-rule:evenodd;clip-rule:evenodd;}
</style>
<g id="difi-logo" transform="translate(-3.000000, -2.000000)">
	<path d="M202.9,45v-7h-1.3v3.8c0,1.5-1.2,2.1-2.2,2.1s-1.7-0.7-1.7-1.9v-4h-1.3v4c0,2,1.1,3.1,2.8,3.1c0.8,0,1.9-0.4,2.3-1.2V45
		H202.9z"/>
	<polygon points="154.4,48.4 155.7,48.4 160.1,38 158.7,38 156.5,43.2 154.4,38 153,38 155.8,44.8 	"/>
	<path d="M152.3,43c0-0.8-0.4-1.7-1.8-2l-1-0.3c-0.5-0.1-0.9-0.4-0.9-0.8c0-0.5,0.5-0.9,1.1-0.9s1.1,0.4,1.1,0.9h1.3
		c0-1.4-1.2-2-2.4-2c-1.4,0-2.4,0.9-2.4,2s0.7,1.7,1.8,2l1,0.2c0.6,0.1,1,0.4,1,0.9c0,0.6-0.5,1-1.4,1s-1.4-0.5-1.4-1.1H147
		c0.1,1.4,1.4,2.2,2.6,2.2C151.1,45.2,152.3,44.4,152.3,43z"/>
	<rect x="144" y="34.2" width="1.3" height="10.8"/>
	<path d="M191.6,39.3l0.2-1.2c-0.2-0.1-0.7-0.3-1.2-0.3c-0.9,0-1.6,0.5-2,1.7V38h-1.3v7h1.3v-2.6c0-1.8,0.6-3.3,2-3.3
		C190.8,39.1,191.2,39.2,191.6,39.3z"/>
	<path d="M141,36.3c0.5,0,0.9-0.4,0.9-0.9s-0.4-0.9-0.9-0.9s-0.9,0.4-0.9,0.9S140.6,36.3,141,36.3z"/>
	<polygon points="131.3,35.9 134.5,35.9 134.5,45 135.8,45 135.8,35.9 139,35.9 139,34.7 131.3,34.7 	"/>
	<path d="M175.7,37.1c0-0.9,0.3-1.7,1.6-1.7h0.5v-1.2H177c-1.9,0-2.6,1.3-2.6,3.1V38h-1.3v1.1h1.3V45h1.3v-5.9h1.6V38h-1.6V37.1z"/>
	<rect x="140.4" y="38" width="1.3" height="7"/>
	<path d="M214.4,36.3c0.5,0,0.9-0.4,0.9-0.9s-0.4-0.9-0.9-0.9s-0.9,0.4-0.9,0.9S213.9,36.3,214.4,36.3z"/>
	<path d="M241.7,41l-1-0.3c-0.5-0.1-0.9-0.4-0.9-0.8c0-0.5,0.5-0.9,1.1-0.9s1.1,0.4,1.1,0.9h1.3c0-1.4-1.2-2-2.4-2
		c-1.4,0-2.4,0.9-2.4,2s0.7,1.7,1.8,2l1,0.2c0.6,0.1,1,0.4,1,0.9c0,0.6-0.5,1-1.4,1s-1.4-0.5-1.4-1.1h-1.2c0.1,1.4,1.4,2.2,2.6,2.2
		c1.5,0,2.7-0.8,2.7-2.1C243.6,42.3,243.2,41.4,241.7,41z"/>
	<path d="M234.4,42.4c0-1.8,0.6-3.3,2-3.3c0.3,0,0.6,0.1,1,0.2l0.2-1.2c-0.2-0.1-0.7-0.3-1.2-0.3c-0.9,0-1.6,0.5-2,1.7V38h-1.3v7
		h1.3V42.4z"/>
	<path d="M248.5,37.8c-2,0-3.6,1.4-3.6,3.6c0,2.2,1.6,3.7,3.6,3.7c1.3,0,2.6-0.6,3.2-1.8l-1.1-0.5c-0.4,0.7-1.2,1.1-2,1.1
		c-1.2,0-2.1-0.6-2.3-1.9h5.7c0-0.2,0-0.4,0-0.6C251.9,39.3,250.4,37.8,248.5,37.8z M246.2,40.9c0.2-1.3,1-1.9,2.2-1.9
		s2,0.7,2.2,1.9H246.2z"/>
	<rect x="253.7" y="34.2" width="1.3" height="10.8"/>
	<rect x="257.3" y="34.2" width="1.3" height="10.8"/>
	<path d="M162.7,41.2c0-1.5,1.2-2.1,2.1-2.1c1,0,1.7,0.7,1.7,1.9v4h1.3v-4c0-2-1.1-3.1-2.8-3.1c-0.8,0-1.9,0.4-2.3,1.2V38h-1.3v7
		h1.3V41.2z"/>
	<path d="M211.6,45v-4c0-2-1.1-3.1-2.8-3.1c-0.8,0-1.9,0.4-2.3,1.2V38h-1.3v7h1.3v-3.8c0-1.5,1.2-2.1,2.1-2.1c1,0,1.7,0.7,1.7,1.9v4
		C210.3,45,211.6,45,211.6,45z"/>
	<polygon points="222.1,38 220,43.3 217.8,38 216.4,38 219.3,45 220.6,45 223.5,38 	"/>
	<path d="M181.8,45.2c2,0,3.7-1.5,3.7-3.7s-1.7-3.6-3.7-3.6s-3.7,1.4-3.7,3.6C178.1,43.7,179.8,45.2,181.8,45.2z M181.8,39.1
		c1.3,0,2.4,1,2.4,2.4c0,1.5-1.1,2.4-2.4,2.4c-1.3,0-2.3-1-2.3-2.4C179.5,40,180.5,39.1,181.8,39.1z"/>
	<rect x="213.8" y="38" width="1.3" height="7"/>
	<path d="M231,43.3l-1.1-0.5c-0.4,0.7-1.2,1.1-2,1.1c-1.2,0-2.1-0.6-2.3-1.9h5.7c0-0.2,0-0.4,0-0.6c0-2.2-1.5-3.6-3.5-3.6
		s-3.6,1.4-3.6,3.6c0,2.2,1.6,3.7,3.6,3.7C229.2,45.2,230.4,44.5,231,43.3z M227.8,39.1c1.2,0,2,0.7,2.2,1.9h-4.4
		C225.8,39.7,226.6,39.1,227.8,39.1z"/>
	<polygon points="142.6,49.3 141.3,49.3 141.3,52 140,52 140,53.1 141.3,53.1 141.3,59 142.6,59 142.6,53.1 144.1,53.1 144.1,52 
		142.6,52 	"/>
	<path d="M137.2,55.8c0,1.5-1.2,2.1-2.2,2.1s-1.7-0.7-1.7-1.9v-4H132v4c0,2,1.1,3.1,2.8,3.1c0.8,0,1.9-0.4,2.3-1.2V59h1.3v-7h-1.3
		L137.2,55.8L137.2,55.8z"/>
	<rect x="178" y="52" width="1.3" height="7"/>
	<path d="M224.3,48.5c-0.5,0-0.9,0.4-0.9,0.9s0.4,0.9,0.9,0.9s0.9-0.4,0.9-0.9S224.8,48.5,224.3,48.5z"/>
	<path d="M208.7,53.1c-0.5-0.8-1.5-1.2-2.5-1.2c-1.9,0-3.5,1.4-3.5,3.6c0,2.2,1.6,3.7,3.5,3.7c1,0,2-0.5,2.5-1.3V59h1.3v-7h-1.3
		V53.1z M206.3,57.9c-1.3,0-2.3-1-2.3-2.4s1-2.4,2.3-2.4c1.2,0,2.4,0.9,2.4,2.4S207.6,57.9,206.3,57.9z"/>
	<polygon points="214.9,57.3 212.8,52 211.4,52 214.3,59 215.5,59 218.5,52 217.1,52 	"/>
	<rect x="223.6" y="52" width="1.3" height="7"/>
	<polygon points="232.7,52 230.9,52 228.5,54.5 228.5,48.2 227.2,48.2 227.2,59 228.5,59 228.5,55.6 231.7,59 233.5,59 229.7,55 	
		"/>
	<polygon points="236.3,49.3 235,49.3 235,52 233.8,52 233.8,53.1 235,53.1 235,59 236.3,59 236.3,53.1 237.8,53.1 237.8,52 
		236.3,52 	"/>
	<path d="M185.2,51.8c-0.8,0-1.9,0.4-2.3,1.2v-1h-1.3v7h1.3v-3.8c0-1.5,1.2-2.1,2.1-2.1s1.7,0.7,1.7,1.9v4h1.3v-4
		C188.1,53,187,51.8,185.2,51.8z"/>
	<path d="M160.4,53.6V52H159v7h1.3v-2.6c0-1.8,0.6-3.3,2-3.3c0.3,0,0.6,0.1,1,0.2l0.2-1.2c-0.2-0.1-0.7-0.3-1.2-0.3
		C161.4,51.8,160.7,52.4,160.4,53.6z"/>
	<path d="M153.5,51.8c-2,0-3.7,1.4-3.7,3.6c0,2.2,1.7,3.7,3.7,3.7s3.7-1.5,3.7-3.7C157.2,53.3,155.5,51.8,153.5,51.8z M153.5,57.9
		c-1.3,0-2.3-1-2.3-2.4s1.1-2.4,2.3-2.4c1.3,0,2.4,1,2.4,2.4S154.8,57.9,153.5,57.9z"/>
	<path d="M195.8,53.1c-0.5-0.8-1.5-1.2-2.5-1.2c-1.9,0-3.5,1.4-3.5,3.6c0,2.2,1.6,3.7,3.5,3.7c1,0,2-0.5,2.5-1.3V58
		c0,2.4-1,3.2-2.5,3.2c-0.8,0-1.6-0.4-2-1.2l-1.1,0.6c0.7,1.2,1.9,1.9,3.2,1.9c2.3,0,3.8-1.2,3.8-4.6V52h-1.3L195.8,53.1L195.8,53.1
		z M193.4,57.9c-1.3,0-2.3-1-2.3-2.4s1-2.4,2.3-2.4c1.2,0,2.4,0.9,2.4,2.4C195.8,57,194.6,57.9,193.4,57.9z"/>
	<path d="M173.2,51.8c-0.7,0-1.8,0.2-2.4,1.5c-0.4-0.9-1.3-1.5-2.3-1.5s-1.9,0.5-2.2,1.2v-1H165v7h1.3v-3.8c0-1.5,1-2.1,2-2.1
		c0.9,0,1.6,0.7,1.6,1.9v4h1.3v-3.6v0.1c-0.1-1.3,0.6-2.4,1.9-2.4c1,0,1.7,0.8,1.7,1.9v4h1.3v-4C175.9,53,174.9,51.8,173.2,51.8z"/>
	<path d="M178.7,48.5c-0.5,0-0.9,0.4-0.9,0.9s0.4,0.9,0.9,0.9s0.9-0.4,0.9-0.9S179.2,48.5,178.7,48.5z"/>
	<path d="M146.2,51.3V52h-1.4v1.1h1.4V59h1.3v-5.9h1.6V52h-1.6v-0.9c0-0.9,0.3-1.7,1.6-1.7h0.5v-1.2h-0.8
		C146.9,48.2,146.2,49.4,146.2,51.3z"/>
	<polygon id="Path-13" class="st0" points="120,7 121,7 121,62.5 120,62.5 	"/>
	<path class="st1" d="M135.3,20.1h7.5V22h-9.6V6.2h9.3v1.9h-7.3v5.2h6.3v2h-6.3v4.8H135.3z M153.9,11.3h2v9.1c0,5.1-2.3,7-5.8,7
		c-2,0-3.8-1-4.8-2.9l1.7-0.9c0.7,1.2,1.9,1.9,3.1,1.9c2.4,0,3.8-1.3,3.8-5v-0.2c-0.7,1.2-2.3,1.9-3.8,1.9c-2.9,0-5.4-2.2-5.4-5.6
		s2.4-5.6,5.4-5.6c1.6,0,3.1,0.7,3.8,1.9V11.3z M150.3,20.3c1.9,0,3.7-1.4,3.7-3.7s-1.9-3.7-3.7-3.7c-2,0-3.5,1.5-3.5,3.7
		C146.8,18.7,148.3,20.3,150.3,20.3z M169.5,16.6c0,0.3,0,0.6,0,0.9h-8.7c0.3,1.9,1.7,2.9,3.5,2.9c1.3,0,2.5-0.6,3.1-1.6l1.7,0.7
		c-0.9,1.9-2.9,2.8-4.9,2.8c-3.1,0-5.5-2.2-5.5-5.6s2.5-5.6,5.5-5.6C167.3,11,169.5,13.2,169.5,16.6z M160.8,15.8h6.8
		c-0.3-1.8-1.6-2.9-3.3-2.9C162.4,12.9,161.1,13.8,160.8,15.8z M177.8,11c2.7,0,4.3,1.7,4.3,4.8V22h-2v-6.1c0-1.8-1.1-2.9-2.6-2.9
		s-3.3,0.9-3.3,3.2V22h-2V11.3h2v1.6C174.9,11.6,176.7,11,177.8,11z M195.1,22h-2.7l-4.9-5.2V22h-2V5.4h2v9.7l3.7-3.8h2.8l-4.6,4.6
		L195.1,22z M200.9,22.2c-3.1,0-5.6-2.2-5.6-5.6s2.6-5.6,5.6-5.6s5.6,2.2,5.6,5.6S204,22.2,200.9,22.2z M200.9,20.3
		c2,0,3.6-1.5,3.6-3.7s-1.7-3.7-3.6-3.7c-2,0-3.6,1.5-3.6,3.7C197.3,18.8,199,20.3,200.9,20.3z M214.9,11c2.7,0,4.3,1.7,4.3,4.8V22
		h-2v-6.1c0-1.8-1.1-2.9-2.6-2.9s-3.3,0.9-3.3,3.2V22h-2V11.3h2v1.6C212,11.6,213.7,11,214.9,11z M227.6,11.3V13h-2.3v9h-2v-9h-1.9
		v-1.7h1.9V7.2h2v4.1C225.3,11.3,227.6,11.3,227.6,11.3z M234.8,11c0.8,0,1.5,0.2,1.9,0.4l-0.3,1.9c-0.6-0.3-1.2-0.4-1.6-0.4
		c-2.1,0-3,2.3-3,5.1v4h-2V11.3h2v2.4C232.4,11.8,233.4,11,234.8,11z M243.3,22.2c-3.1,0-5.6-2.2-5.6-5.6s2.6-5.6,5.6-5.6
		s5.6,2.2,5.6,5.6S246.3,22.2,243.3,22.2z M243.3,20.3c2,0,3.6-1.5,3.6-3.7s-1.7-3.7-3.6-3.7c-2,0-3.6,1.5-3.6,3.7
		S241.3,20.3,243.3,20.3z M251.7,22V5.4h2V22H251.7z M257.2,22V5.4h2V22H257.2z M276.9,11.3h2V22h-2v-1.7c-0.7,1.2-2.3,1.9-3.8,1.9
		c-2.9,0-5.4-2.2-5.4-5.6s2.4-5.6,5.4-5.6c1.6,0,3.1,0.6,3.8,1.9V11.3z M273.3,20.3c1.9,0,3.7-1.4,3.7-3.7s-1.9-3.7-3.7-3.7
		c-2,0-3.5,1.5-3.5,3.7C269.8,18.7,271.3,20.3,273.3,20.3z M290.2,11.3h2V22h-2v-1.7c-0.6,1.3-2.4,1.9-3.6,1.9
		c-2.7,0-4.3-1.7-4.3-4.8v-6.2h2v6.1c0,1.8,1.1,2.9,2.6,2.9s3.3-0.9,3.3-3.2V11.3z M300.8,11.3V13h-2.3v9h-2v-9h-1.9v-1.7h1.9V7.2h2
		v4.1C298.5,11.3,300.8,11.3,300.8,11.3z M307.7,22.2c-3.1,0-5.6-2.2-5.6-5.6s2.6-5.6,5.6-5.6s5.6,2.2,5.6,5.6
		S310.7,22.2,307.7,22.2z M307.7,20.3c2,0,3.6-1.5,3.6-3.7s-1.7-3.7-3.6-3.7c-2,0-3.6,1.5-3.6,3.7S305.7,20.3,307.7,20.3z M328.8,11
		c2.7,0,4.2,1.7,4.2,4.8V22h-2v-6.1c0-1.8-1-2.9-2.6-2.9c-1.9,0-3.1,1.6-2.9,3.7v-0.1V22h-2v-6.1c0-1.8-1-2.9-2.4-2.9
		c-1.5,0-3,0.9-3,3.2V22h-2V11.3h2v1.6c0.6-1.1,1.9-1.9,3.5-1.9s2.9,0.8,3.5,2.2C326.1,11.4,327.8,11,328.8,11z M344.8,11.3h2V22h-2
		v-1.7c-0.7,1.2-2.3,1.9-3.8,1.9c-2.9,0-5.4-2.2-5.4-5.6S338,11,341,11c1.6,0,3.1,0.6,3.8,1.9V11.3z M341.2,20.3
		c1.9,0,3.7-1.4,3.7-3.7s-1.9-3.7-3.7-3.7c-2,0-3.5,1.5-3.5,3.7C337.7,18.7,339.2,20.3,341.2,20.3z M355.5,11.3V13h-2.3v9h-2v-9
		h-1.9v-1.7h1.9V7.2h2v4.1C353.2,11.3,355.5,11.3,355.5,11.3z M367.6,16.6c0,0.3,0,0.6,0,0.9h-8.7c0.3,1.9,1.7,2.9,3.5,2.9
		c1.3,0,2.5-0.6,3.1-1.6l1.7,0.7c-0.9,1.9-2.9,2.8-4.9,2.8c-3.1,0-5.5-2.2-5.5-5.6s2.5-5.6,5.5-5.6C365.3,11,367.6,13.2,367.6,16.6z
		 M358.8,15.8h6.8c-0.3-1.8-1.6-2.9-3.3-2.9C360.4,12.9,359.2,13.8,358.8,15.8z M375.4,11c0.8,0,1.5,0.2,1.9,0.4l-0.3,1.9
		c-0.6-0.3-1.2-0.4-1.6-0.4c-2.1,0-3,2.3-3,5.1v4h-2V11.3h2v2.4C372.9,11.8,373.9,11,375.4,11z"/>
	<path id="Fill-1" class="st2" d="M42.3,2.3H23.9l-0.5,5.8H6.1l-1,11.6h17.3l0.5-5.8h17.4c3.3,0,5.7,2.6,5.4,5.8s-3.2,5.8-6.4,5.8
		H21.9l-0.5,5.8H4L3,43h17.3l0.5-5.8h17.4c9.8,0,18.4-7.8,19.3-17.5C58.3,10.4,51.6,2.8,42.3,2.3"/>
	<path id="Fill-4" d="M76.9,22.6h-3.4V10.4h3.4c3,0,4.5,2.9,4.5,6.1S79.9,22.6,76.9,22.6 M76.9,7H70v19h6.9c5.1,0,8.1-4.1,8.1-9.5
		S82,7,76.9,7"/>
	<polygon id="Fill-6" class="st3" points="88,26 91,26 91,14 88,14 	"/>
	<path id="Fill-8" class="st3" d="M89.5,7C88.1,7,87,7.9,87,9s1.1,2,2.5,2S92,10.1,92,9S90.9,7,89.5,7"/>
	<path id="Fill-9" class="st3" d="M106.5,11c1.4,0,2.5-0.9,2.5-2s-1.1-2-2.5-2S104,7.9,104,9S105.1,11,106.5,11"/>
	<path id="Fill-10" class="st3" d="M98.6,13c0-1.5,0.7-2.6,2.6-2.7l0.3-3.4l0,0h-0.8C97,6.9,95,9.1,95,13v1h-2v2.8h1.9V26h3.6v-9.1
		h5.8V26h3.6V14.1h-9.4L98.6,13L98.6,13z"/>
</g>
</svg>
