<?xml version="1.0" encoding="UTF-8"?>
<svg width="375px" height="61px" viewBox="0 0 375 61" version="1.1" xmlns="http://www.w3.org/2000/svg" xmlns:xlink="http://www.w3.org/1999/xlink">
    <!-- Generator: Sketch 52.5 (67469) - http://www.bohemiancoding.com/sketch -->
    <title>difi-logo@1x</title>
    <desc>Created with Sketch.</desc>
    <defs>
        <path d="M7.965,0.665 L7.965,1.925 L4.815,1.925 L4.815,11 L3.45,11 L3.45,1.925 L0.3,1.925 L0.3,0.665 L7.965,0.665 Z M10.05,2.285 C9.555,2.285 9.135,1.91 9.135,1.415 C9.135,0.92 9.555,0.545 10.05,0.545 C10.56,0.545 10.98,0.92 10.98,1.415 C10.98,1.91 10.56,2.285 10.05,2.285 Z M9.405,11 L9.405,3.995 L10.71,3.995 L10.71,11 L9.405,11 Z M12.975,11 L12.975,0.17 L14.28,0.17 L14.28,11 L12.975,11 Z M18.6,11.15 C17.34,11.15 16.05,10.355 15.99,8.915 L17.205,8.915 C17.22,9.515 17.745,10.01 18.6,10.01 C19.485,10.01 20.01,9.605 20.01,9.035 C20.01,8.51 19.605,8.24 19.05,8.12 L18.09,7.895 C16.92,7.58 16.245,7.01 16.245,5.885 C16.245,4.73 17.235,3.845 18.645,3.845 C19.83,3.845 21.06,4.475 21.06,5.885 L19.8,5.885 C19.785,5.345 19.23,4.985 18.675,4.985 C18,4.985 17.55,5.39 17.55,5.93 C17.55,6.41 18,6.665 18.45,6.77 L19.485,7.025 C20.94,7.385 21.315,8.255 21.315,9.05 C21.315,10.355 20.055,11.15 18.6,11.15 Z M27.675,3.995 L29.085,3.995 L24.735,14.405 L23.355,14.405 L24.81,10.805 L22.005,3.995 L23.415,3.995 L25.53,9.155 L27.675,3.995 Z M34.05,3.845 C35.79,3.845 36.885,4.985 36.87,6.95 L36.87,11 L35.565,11 L35.565,7.025 C35.565,5.855 34.845,5.135 33.87,5.135 C32.895,5.135 31.725,5.69 31.725,7.205 L31.725,11 L30.42,11 L30.42,3.995 L31.725,3.995 L31.725,5.06 C32.145,4.205 33.285,3.845 34.05,3.845 Z M46.275,1.4 C45.03,1.4 44.7,2.165 44.715,3.08 L44.715,3.995 L46.35,3.995 L46.35,5.12 L44.715,5.12 L44.715,11 L43.41,11 L43.41,5.12 L42.06,5.12 L42.06,3.995 L43.41,3.995 L43.41,3.26 C43.41,1.43 44.175,0.17 46.05,0.17 L46.8,0.17 L46.8,1.4 L46.275,1.4 Z M50.805,11.15 C48.81,11.15 47.145,9.695 47.145,7.475 C47.145,5.255 48.81,3.845 50.805,3.845 C52.8,3.845 54.48,5.255 54.48,7.475 C54.48,9.695 52.8,11.15 50.805,11.15 Z M50.805,9.92 C52.095,9.92 53.175,8.93 53.175,7.475 C53.175,6.035 52.095,5.075 50.805,5.075 C49.53,5.075 48.465,6.035 48.465,7.475 C48.465,8.93 49.53,9.92 50.805,9.92 Z M59.58,3.845 C60.075,3.845 60.585,3.98 60.795,4.115 L60.585,5.345 C60.21,5.165 59.835,5.105 59.565,5.105 C58.17,5.105 57.615,6.59 57.615,8.435 L57.615,11 L56.295,11 L56.295,3.995 L57.615,3.995 L57.615,5.585 C57.975,4.355 58.65,3.845 59.58,3.845 Z M70.56,3.995 L71.865,3.995 L71.865,11 L70.56,11 L70.56,9.905 C70.14,10.775 69.015,11.15 68.235,11.15 C66.48,11.15 65.4,10.01 65.415,8.045 L65.415,3.995 L66.72,3.995 L66.72,7.97 C66.72,9.14 67.425,9.86 68.4,9.86 C69.375,9.86 70.545,9.305 70.56,7.79 L70.56,3.995 Z M77.76,3.845 C79.5,3.845 80.595,4.985 80.58,6.95 L80.58,11 L79.275,11 L79.275,7.025 C79.275,5.855 78.555,5.135 77.58,5.135 C76.605,5.135 75.435,5.69 75.435,7.205 L75.435,11 L74.13,11 L74.13,3.995 L75.435,3.995 L75.435,5.06 C75.855,4.205 76.995,3.845 77.76,3.845 Z M83.4,2.285 C82.905,2.285 82.485,1.91 82.485,1.415 C82.485,0.92 82.905,0.545 83.4,0.545 C83.91,0.545 84.33,0.92 84.33,1.415 C84.33,1.91 83.91,2.285 83.4,2.285 Z M82.755,11 L82.755,3.995 L84.06,3.995 L84.06,11 L82.755,11 Z M91.11,3.995 L92.52,3.995 L89.595,11 L88.32,11 L85.41,3.995 L86.805,3.995 L88.965,9.335 L91.11,3.995 Z M100.305,7.475 C100.305,7.67 100.29,7.865 100.275,8.06 L94.575,8.06 C94.77,9.305 95.67,9.92 96.87,9.92 C97.725,9.92 98.52,9.56 98.91,8.855 L100.05,9.305 C99.435,10.52 98.175,11.15 96.825,11.15 C94.83,11.15 93.225,9.695 93.225,7.475 C93.225,5.255 94.83,3.845 96.825,3.845 C98.82,3.845 100.305,5.255 100.305,7.475 Z M94.59,6.935 L99,6.935 C98.835,5.735 97.98,5.075 96.825,5.075 C95.64,5.075 94.8,5.675 94.59,6.935 Z M105.36,3.845 C105.855,3.845 106.365,3.98 106.575,4.115 L106.365,5.345 C105.99,5.165 105.615,5.105 105.345,5.105 C103.95,5.105 103.395,6.59 103.395,8.435 L103.395,11 L102.075,11 L102.075,3.995 L103.395,3.995 L103.395,5.585 C103.755,4.355 104.43,3.845 105.36,3.845 Z M109.845,11.15 C108.585,11.15 107.295,10.355 107.235,8.915 L108.45,8.915 C108.465,9.515 108.99,10.01 109.845,10.01 C110.73,10.01 111.255,9.605 111.255,9.035 C111.255,8.51 110.85,8.24 110.295,8.12 L109.335,7.895 C108.165,7.58 107.49,7.01 107.49,5.885 C107.49,4.73 108.48,3.845 109.89,3.845 C111.075,3.845 112.305,4.475 112.305,5.885 L111.045,5.885 C111.03,5.345 110.475,4.985 109.92,4.985 C109.245,4.985 108.795,5.39 108.795,5.93 C108.795,6.41 109.245,6.665 109.695,6.77 L110.73,7.025 C112.185,7.385 112.56,8.255 112.56,9.05 C112.56,10.355 111.3,11.15 109.845,11.15 Z M120.93,7.475 C120.93,7.67 120.915,7.865 120.9,8.06 L115.2,8.06 C115.395,9.305 116.295,9.92 117.495,9.92 C118.35,9.92 119.145,9.56 119.535,8.855 L120.675,9.305 C120.06,10.52 118.8,11.15 117.45,11.15 C115.455,11.15 113.85,9.695 113.85,7.475 C113.85,5.255 115.455,3.845 117.45,3.845 C119.445,3.845 120.93,5.255 120.93,7.475 Z M115.215,6.935 L119.625,6.935 C119.46,5.735 118.605,5.075 117.45,5.075 C116.265,5.075 115.425,5.675 115.215,6.935 Z M122.7,11 L122.7,0.17 L124.005,0.17 L124.005,11 L122.7,11 Z M126.27,11 L126.27,0.17 L127.575,0.17 L127.575,11 L126.27,11 Z" id="path-1"></path>
        <path d="M6.195,17.995 L7.5,17.995 L7.5,25 L6.195,25 L6.195,23.905 C5.775,24.775 4.65,25.15 3.87,25.15 C2.115,25.15 1.035,24.01 1.05,22.045 L1.05,17.995 L2.355,17.995 L2.355,21.97 C2.355,23.14 3.06,23.86 4.035,23.86 C5.01,23.86 6.18,23.305 6.195,21.79 L6.195,17.995 Z M13.125,17.995 L13.125,19.12 L11.61,19.12 L11.61,25 L10.305,25 L10.305,19.12 L9.045,19.12 L9.045,17.995 L10.305,17.995 L10.305,15.34 L11.61,15.34 L11.61,17.995 L13.125,17.995 Z M18.015,15.4 C16.77,15.4 16.44,16.165 16.455,17.08 L16.455,17.995 L18.09,17.995 L18.09,19.12 L16.455,19.12 L16.455,25 L15.15,25 L15.15,19.12 L13.8,19.12 L13.8,17.995 L15.15,17.995 L15.15,17.26 C15.15,15.43 15.915,14.17 17.79,14.17 L18.54,14.17 L18.54,15.4 L18.015,15.4 Z M22.545,25.15 C20.55,25.15 18.885,23.695 18.885,21.475 C18.885,19.255 20.55,17.845 22.545,17.845 C24.54,17.845 26.22,19.255 26.22,21.475 C26.22,23.695 24.54,25.15 22.545,25.15 Z M22.545,23.92 C23.835,23.92 24.915,22.93 24.915,21.475 C24.915,20.035 23.835,19.075 22.545,19.075 C21.27,19.075 20.205,20.035 20.205,21.475 C20.205,22.93 21.27,23.92 22.545,23.92 Z M31.32,17.845 C31.815,17.845 32.325,17.98 32.535,18.115 L32.325,19.345 C31.95,19.165 31.575,19.105 31.305,19.105 C29.91,19.105 29.355,20.59 29.355,22.435 L29.355,25 L28.035,25 L28.035,17.995 L29.355,17.995 L29.355,19.585 C29.715,18.355 30.39,17.845 31.32,17.845 Z M42.15,17.845 C43.905,17.845 44.865,18.985 44.865,20.95 L44.865,25 L43.56,25 L43.56,21.025 C43.56,19.855 42.915,19.105 41.895,19.105 C40.65,19.09 39.9,20.14 40.02,21.49 L40.005,21.43 L40.005,25 L38.7,25 L38.7,21.025 C38.7,19.84 38.055,19.105 37.125,19.105 C36.135,19.105 35.145,19.72 35.145,21.205 L35.145,25 L33.84,25 L33.84,17.995 L35.145,17.995 L35.145,19.06 C35.505,18.31 36.405,17.845 37.395,17.845 C38.415,17.845 39.3,18.37 39.705,19.3 C40.335,18.055 41.445,17.845 42.15,17.845 Z M47.685,16.285 C47.19,16.285 46.77,15.91 46.77,15.415 C46.77,14.92 47.19,14.545 47.685,14.545 C48.195,14.545 48.615,14.92 48.615,15.415 C48.615,15.91 48.195,16.285 47.685,16.285 Z M47.04,25 L47.04,17.995 L48.345,17.995 L48.345,25 L47.04,25 Z M54.24,17.845 C55.98,17.845 57.075,18.985 57.06,20.95 L57.06,25 L55.755,25 L55.755,21.025 C55.755,19.855 55.035,19.135 54.06,19.135 C53.085,19.135 51.915,19.69 51.915,21.205 L51.915,25 L50.61,25 L50.61,17.995 L51.915,17.995 L51.915,19.06 C52.335,18.205 53.475,17.845 54.24,17.845 Z M64.77,17.995 L66.075,17.995 L66.075,23.935 C66.075,27.25 64.575,28.495 62.265,28.495 C60.99,28.495 59.805,27.85 59.115,26.62 L60.225,26.035 C60.66,26.83 61.485,27.265 62.265,27.265 C63.81,27.265 64.77,26.395 64.77,24.025 L64.77,23.89 C64.305,24.7 63.285,25.15 62.28,25.15 C60.36,25.15 58.77,23.695 58.77,21.49 C58.77,19.27 60.345,17.845 62.265,17.845 C63.315,17.845 64.305,18.28 64.77,19.09 L64.77,17.995 Z M62.385,23.92 C63.645,23.92 64.77,22.975 64.77,21.475 C64.77,19.96 63.54,19.075 62.385,19.075 C61.11,19.075 60.09,20.065 60.09,21.475 C60.09,22.87 61.11,23.92 62.385,23.92 Z M77.685,17.995 L78.99,17.995 L78.99,25 L77.685,25 L77.685,23.89 C77.22,24.7 76.2,25.15 75.195,25.15 C73.275,25.15 71.685,23.695 71.685,21.49 C71.685,19.27 73.26,17.845 75.18,17.845 C76.23,17.845 77.22,18.265 77.685,19.09 L77.685,17.995 Z M75.3,23.92 C76.56,23.92 77.685,22.975 77.685,21.475 C77.685,19.96 76.455,19.075 75.3,19.075 C74.025,19.075 73.005,20.065 73.005,21.475 C73.005,22.87 74.025,23.92 75.3,23.92 Z M86.055,17.995 L87.465,17.995 L84.54,25 L83.265,25 L80.355,17.995 L81.75,17.995 L83.91,23.335 L86.055,17.995 Z M93.27,16.285 C92.775,16.285 92.355,15.91 92.355,15.415 C92.355,14.92 92.775,14.545 93.27,14.545 C93.78,14.545 94.2,14.92 94.2,15.415 C94.2,15.91 93.78,16.285 93.27,16.285 Z M92.625,25 L92.625,17.995 L93.93,17.995 L93.93,25 L92.625,25 Z M102.48,25 L100.725,25 L97.5,21.58 L97.5,25 L96.195,25 L96.195,14.17 L97.5,14.17 L97.5,20.47 L99.93,17.995 L101.745,17.995 L98.745,21.025 L102.48,25 Z M106.845,17.995 L106.845,19.12 L105.33,19.12 L105.33,25 L104.025,25 L104.025,19.12 L102.765,19.12 L102.765,17.995 L104.025,17.995 L104.025,15.34 L105.33,15.34 L105.33,17.995 L106.845,17.995 Z" id="path-2"></path>
        <path d="M4.278,15.068 L11.776,15.068 L11.776,17 L2.208,17 L2.208,1.153 L11.546,1.153 L11.546,3.085 L4.278,3.085 L4.278,8.237 L10.626,8.237 L10.626,10.192 L4.278,10.192 L4.278,15.068 Z M22.931,6.259 L24.932,6.259 L24.932,15.367 C24.932,20.45 22.632,22.359 19.09,22.359 C17.135,22.359 15.318,21.37 14.26,19.484 L15.962,18.587 C16.629,19.806 17.894,20.473 19.09,20.473 C21.459,20.473 22.931,19.139 22.931,15.505 L22.931,15.298 C22.218,16.54 20.654,17.23 19.113,17.23 C16.169,17.23 13.731,14.999 13.731,11.618 C13.731,8.214 16.146,6.029 19.09,6.029 C20.7,6.029 22.218,6.696 22.931,7.938 L22.931,6.259 Z M19.274,15.344 C21.206,15.344 22.931,13.895 22.931,11.595 C22.931,9.272 21.045,7.915 19.274,7.915 C17.319,7.915 15.755,9.433 15.755,11.595 C15.755,13.734 17.319,15.344 19.274,15.344 Z M38.548,11.595 C38.548,11.894 38.525,12.193 38.502,12.492 L29.762,12.492 C30.061,14.401 31.441,15.344 33.281,15.344 C34.592,15.344 35.811,14.792 36.409,13.711 L38.157,14.401 C37.214,16.264 35.282,17.23 33.212,17.23 C30.153,17.23 27.692,14.999 27.692,11.595 C27.692,8.191 30.153,6.029 33.212,6.029 C36.271,6.029 38.548,8.191 38.548,11.595 Z M29.785,10.767 L36.547,10.767 C36.294,8.927 34.983,7.915 33.212,7.915 C31.395,7.915 30.107,8.835 29.785,10.767 Z M46.828,6.029 C49.496,6.029 51.175,7.777 51.152,10.79 L51.152,17 L49.151,17 L49.151,10.905 C49.151,9.111 48.047,8.007 46.552,8.007 C45.057,8.007 43.263,8.858 43.263,11.181 L43.263,17 L41.262,17 L41.262,6.259 L43.263,6.259 L43.263,7.892 C43.907,6.581 45.655,6.029 46.828,6.029 Z M64.124,17 L61.433,17 L56.488,11.756 L56.488,17 L54.487,17 L54.487,0.394 L56.488,0.394 L56.488,10.054 L60.214,6.259 L62.997,6.259 L58.397,10.905 L64.124,17 Z M69.92,17.23 C66.861,17.23 64.308,14.999 64.308,11.595 C64.308,8.191 66.861,6.029 69.92,6.029 C72.979,6.029 75.555,8.191 75.555,11.595 C75.555,14.999 72.979,17.23 69.92,17.23 Z M69.92,15.344 C71.898,15.344 73.554,13.826 73.554,11.595 C73.554,9.387 71.898,7.915 69.92,7.915 C67.965,7.915 66.332,9.387 66.332,11.595 C66.332,13.826 67.965,15.344 69.92,15.344 Z M83.904,6.029 C86.572,6.029 88.251,7.777 88.228,10.79 L88.228,17 L86.227,17 L86.227,10.905 C86.227,9.111 85.123,8.007 83.628,8.007 C82.133,8.007 80.339,8.858 80.339,11.181 L80.339,17 L78.338,17 L78.338,6.259 L80.339,6.259 L80.339,7.892 C80.983,6.581 82.731,6.029 83.904,6.029 Z M96.577,6.259 L96.577,7.984 L94.254,7.984 L94.254,17 L92.253,17 L92.253,7.984 L90.321,7.984 L90.321,6.259 L92.253,6.259 L92.253,2.188 L94.254,2.188 L94.254,6.259 L96.577,6.259 Z M103.845,6.029 C104.604,6.029 105.386,6.236 105.708,6.443 L105.386,8.329 C104.811,8.053 104.236,7.961 103.822,7.961 C101.683,7.961 100.832,10.238 100.832,13.067 L100.832,17 L98.808,17 L98.808,6.259 L100.832,6.259 L100.832,8.697 C101.384,6.811 102.419,6.029 103.845,6.029 Z M112.263,17.23 C109.204,17.23 106.651,14.999 106.651,11.595 C106.651,8.191 109.204,6.029 112.263,6.029 C115.322,6.029 117.898,8.191 117.898,11.595 C117.898,14.999 115.322,17.23 112.263,17.23 Z M112.263,15.344 C114.241,15.344 115.897,13.826 115.897,11.595 C115.897,9.387 114.241,7.915 112.263,7.915 C110.308,7.915 108.675,9.387 108.675,11.595 C108.675,13.826 110.308,15.344 112.263,15.344 Z M120.681,17 L120.681,0.394 L122.682,0.394 L122.682,17 L120.681,17 Z M126.155,17 L126.155,0.394 L128.156,0.394 L128.156,17 L126.155,17 Z M145.935,6.259 L147.936,6.259 L147.936,17 L145.935,17 L145.935,15.298 C145.222,16.54 143.658,17.23 142.117,17.23 C139.173,17.23 136.735,14.999 136.735,11.618 C136.735,8.214 139.15,6.029 142.094,6.029 C143.704,6.029 145.222,6.673 145.935,7.938 L145.935,6.259 Z M142.278,15.344 C144.21,15.344 145.935,13.895 145.935,11.595 C145.935,9.272 144.049,7.915 142.278,7.915 C140.323,7.915 138.759,9.433 138.759,11.595 C138.759,13.734 140.323,15.344 142.278,15.344 Z M159.183,6.259 L161.184,6.259 L161.184,17 L159.183,17 L159.183,15.321 C158.539,16.655 156.814,17.23 155.618,17.23 C152.927,17.23 151.271,15.482 151.294,12.469 L151.294,6.259 L153.295,6.259 L153.295,12.354 C153.295,14.148 154.376,15.252 155.871,15.252 C157.366,15.252 159.16,14.401 159.183,12.078 L159.183,6.259 Z M169.809,6.259 L169.809,7.984 L167.486,7.984 L167.486,17 L165.485,17 L165.485,7.984 L163.553,7.984 L163.553,6.259 L165.485,6.259 L165.485,2.188 L167.486,2.188 L167.486,6.259 L169.809,6.259 Z M176.686,17.23 C173.627,17.23 171.074,14.999 171.074,11.595 C171.074,8.191 173.627,6.029 176.686,6.029 C179.745,6.029 182.321,8.191 182.321,11.595 C182.321,14.999 179.745,17.23 176.686,17.23 Z M176.686,15.344 C178.664,15.344 180.32,13.826 180.32,11.595 C180.32,9.387 178.664,7.915 176.686,7.915 C174.731,7.915 173.098,9.387 173.098,11.595 C173.098,13.826 174.731,15.344 176.686,15.344 Z M197.846,6.029 C200.537,6.029 202.009,7.777 202.009,10.79 L202.009,17 L200.008,17 L200.008,10.905 C200.008,9.111 199.019,7.961 197.455,7.961 C195.546,7.938 194.396,9.548 194.58,11.618 L194.557,11.526 L194.557,17 L192.556,17 L192.556,10.905 C192.556,9.088 191.567,7.961 190.141,7.961 C188.623,7.961 187.105,8.904 187.105,11.181 L187.105,17 L185.104,17 L185.104,6.259 L187.105,6.259 L187.105,7.892 C187.657,6.742 189.037,6.029 190.555,6.029 C192.119,6.029 193.476,6.834 194.097,8.26 C195.063,6.351 196.765,6.029 197.846,6.029 Z M213.831,6.259 L215.832,6.259 L215.832,17 L213.831,17 L213.831,15.298 C213.118,16.54 211.554,17.23 210.013,17.23 C207.069,17.23 204.631,14.999 204.631,11.618 C204.631,8.214 207.046,6.029 209.99,6.029 C211.6,6.029 213.118,6.673 213.831,7.938 L213.831,6.259 Z M210.174,15.344 C212.106,15.344 213.831,13.895 213.831,11.595 C213.831,9.272 211.945,7.915 210.174,7.915 C208.219,7.915 206.655,9.433 206.655,11.595 C206.655,13.734 208.219,15.344 210.174,15.344 Z M224.48,6.259 L224.48,7.984 L222.157,7.984 L222.157,17 L220.156,17 L220.156,7.984 L218.224,7.984 L218.224,6.259 L220.156,6.259 L220.156,2.188 L222.157,2.188 L222.157,6.259 L224.48,6.259 Z M236.601,11.595 C236.601,11.894 236.578,12.193 236.555,12.492 L227.815,12.492 C228.114,14.401 229.494,15.344 231.334,15.344 C232.645,15.344 233.864,14.792 234.462,13.711 L236.21,14.401 C235.267,16.264 233.335,17.23 231.265,17.23 C228.206,17.23 225.745,14.999 225.745,11.595 C225.745,8.191 228.206,6.029 231.265,6.029 C234.324,6.029 236.601,8.191 236.601,11.595 Z M227.838,10.767 L234.6,10.767 C234.347,8.927 233.036,7.915 231.265,7.915 C229.448,7.915 228.16,8.835 227.838,10.767 Z M244.352,6.029 C245.111,6.029 245.893,6.236 246.215,6.443 L245.893,8.329 C245.318,8.053 244.743,7.961 244.329,7.961 C242.19,7.961 241.339,10.238 241.339,13.067 L241.339,17 L239.315,17 L239.315,6.259 L241.339,6.259 L241.339,8.697 C241.891,6.811 242.926,6.029 244.352,6.029 Z" id="path-3"></path>
        <polygon id="path-4" points="9.90990991e-05 0.294809524 54.5456269 0.294809524 54.5456269 40.9999512 9.90990991e-05 40.9999512"></polygon>
        <polygon id="path-6" points="0 44 111 44 111 -3.55271368e-15 0 -3.55271368e-15"></polygon>
        <polygon id="path-8" points="0 44 111 44 111 -3.55271368e-15 0 -3.55271368e-15"></polygon>
        <polygon id="path-10" points="0 44 111 44 111 -3.55271368e-15 0 -3.55271368e-15"></polygon>
        <polygon id="path-12" points="0 44 111 44 111 -3.55271368e-15 0 -3.55271368e-15"></polygon>
    </defs>
    <g id="Page-1" stroke="none" stroke-width="1" fill="none" fill-rule="evenodd">
        <g id="difi-logo" transform="translate(-3.000000, -2.000000)">
            <g id="Tilsyn-for-universel" transform="translate(131.000000, 34.000000)" fill="#000000">
                <g id="Tilsyn-for-universell">
                    <use xlink:href="#path-1"></use>
                    <use xlink:href="#path-1"></use>
                </g>
                <g id="utforming-av-ikt">
                    <use xlink:href="#path-2"></use>
                    <use xlink:href="#path-2"></use>
                </g>
            </g>
            <polygon id="Path-13" fill="#424242" fill-rule="nonzero" points="120 7 121 7 121 62.5 120 62.5"></polygon>
            <g id="Egenkontroll-automat" transform="translate(131.000000, 5.000000)">
                <g id="Egenkontroll-automater">
                    <use fill="#000000" xlink:href="#path-3"></use>
                    <use fill="#335D61" xlink:href="#path-3"></use>
                </g>
            </g>
            <g id="Difilogo">
                <g id="Group-3" transform="translate(3.000000, 2.000000)">
                    <g id="Fill-1-Clipped">
                        <mask id="mask-5" fill="white">
                            <use xlink:href="#path-4"></use>
                        </mask>
                        <g id="path-1"></g>
                        <path d="M39.2686126,0.322094048 L20.8976216,0.294760714 L20.3813153,6.10943929 L3.09843243,6.10943929 L2.06581982,17.7402607 L19.372982,17.7402607 L19.8882973,11.9358321 L37.2638378,11.9358321 C40.5291532,11.9358321 42.9446937,14.543725 42.6592883,17.7602726 C42.3733874,20.9763321 39.4950541,23.584225 36.2292432,23.584225 L18.8309099,23.563725 L18.3155946,29.370106 L1.03271171,29.370106 L9.90990991e-05,40.9999512 L17.3067658,40.9999512 L17.8196036,35.2257845 L35.1956396,35.2257845 C44.9876216,35.2257845 53.6201441,27.4060107 54.4768559,17.7602726 C55.3048288,8.43570119 48.5636126,0.81995119 39.2686126,0.322094048" id="Fill-1" fill="#47BFEB" mask="url(#mask-5)"></path>
                    </g>
                </g>
                <path d="M76.9467577,22.6077697 L73.5763077,22.6077697 L73.5763077,10.3922303 L76.9467577,10.3922303 C79.9054927,10.3922303 81.4236923,13.2875353 81.4236923,16.5413687 C81.4236923,19.795202 79.9054927,22.6077697 76.9467577,22.6077697 M76.9467577,7 L70,7 L70,26 L76.9467577,26 C82.0412651,26 85,21.9187934 85,16.5413687 C85,11.1363648 82.0412651,7 76.9467577,7" id="Fill-4" fill="#000000" fill-rule="nonzero"></path>
                <g id="Fill-6-Clipped">
                    <mask id="mask-7" fill="white">
                        <use xlink:href="#path-6"></use>
                    </mask>
                    <g id="path-3"></g>
                    <polygon id="Fill-6" fill="#000000" mask="url(#mask-7)" points="88 26 91 26 91 14 88 14"></polygon>
                </g>
                <g id="Fill-8-Clipped">
                    <mask id="mask-9" fill="white">
                        <use xlink:href="#path-8"></use>
                    </mask>
                    <g id="path-3"></g>
                    <path d="M89.5,7 C88.1446741,7 87,7.86647757 87,8.98718353 C87,10.1078895 88.1446741,11 89.5,11 C90.885632,11 92,10.1078895 92,8.98718353 C92,7.86647757 90.885632,7 89.5,7" id="Fill-8" fill="#000000" mask="url(#mask-9)"></path>
                </g>
                <g id="Fill-9-Clipped">
                    <mask id="mask-11" fill="white">
                        <use xlink:href="#path-10"></use>
                    </mask>
                    <g id="path-3"></g>
                    <path d="M106.5,11 C107.915938,11 109,10.1083097 109,8.98760374 C109,7.86647757 107.915938,7 106.5,7 C105.144674,7 104,7.86647757 104,8.98760374 C104,10.1083097 105.144674,11 106.5,11" id="Fill-9" fill="#000000" mask="url(#mask-11)"></path>
                </g>
                <g id="Fill-10-Clipped">
                    <mask id="mask-13" fill="white">
                        <use xlink:href="#path-12"></use>
                    </mask>
                    <g id="path-3"></g>
                    <path d="M98.578024,13.0358188 C98.6053004,11.5449054 99.2316474,10.4428824 101.151603,10.3697149 L101.448613,7.00100229 L101.448613,7 L100.633351,7 C96.9394195,7 94.9391501,9.20454725 94.9391501,13.063382 L94.9391501,14.0746973 L93,14.0746973 L93,16.8585709 L94.9391501,16.8585709 L94.9391501,26 L98.578024,26 L98.578024,16.8585709 L104.361126,16.8585709 L104.361126,26 L108,26 L108,14.0746973 L98.578024,14.0746973 L98.578024,13.0358188 Z" id="Fill-10" fill="#000000" mask="url(#mask-13)"></path>
                </g>
            </g>
        </g>
    </g>
</svg>